solid OpenSCAD_Model
  facet normal 0.68454 0 0.728976
    outer loop
      vertex -1.77751 39.01 3.13983
      vertex -1.40446 1 2.78952
      vertex -1.40446 39.01 2.78952
    endloop
  endfacet
  facet normal 0.68454 0 0.728976
    outer loop
      vertex -1.40446 1 2.78952
      vertex -1.77751 39.01 3.13983
      vertex -1.77751 1 3.13983
    endloop
  endfacet
  facet normal -0.90482 0 0.425794
    outer loop
      vertex -8.16383 1 1.50011
      vertex -7.94594 39.01 1.96313
      vertex -8.16383 39.01 1.50011
    endloop
  endfacet
  facet normal -0.90482 0 0.425794
    outer loop
      vertex -7.94594 39.01 1.96313
      vertex -8.16383 1 1.50011
      vertex -7.94594 1 1.96313
    endloop
  endfacet
  facet normal -0.340985 -0.706409 0.620254
    outer loop
      vertex -6.11005 1 3.68716
      vertex -6.55849 1 3.44063
      vertex -6.02266 0 2.5963
    endloop
  endfacet
  facet normal 0 -0.706413 0.7078
    outer loop
      vertex -4.11914 1 4.06696
      vertex -4.56807 0 3.06892
      vertex -4.18193 0 3.06892
    endloop
  endfacet
  facet normal 0 -0.706413 0.7078
    outer loop
      vertex -4.56807 0 3.06892
      vertex -4.11914 1 4.06696
      vertex -4.63086 1 4.06696
    endloop
  endfacet
  facet normal -0.951052 0 0.309032
    outer loop
      vertex -8.32198 1 1.0134
      vertex -8.16383 39.01 1.50011
      vertex -8.32198 39.01 1.0134
    endloop
  endfacet
  facet normal -0.951052 0 0.309032
    outer loop
      vertex -8.16383 39.01 1.50011
      vertex -8.32198 1 1.0134
      vertex -8.16383 1 1.50011
    endloop
  endfacet
  facet normal -0.260553 -0.706411 0.6581
    outer loop
      vertex -5.63423 1 3.87555
      vertex -5.68427 0 2.78233
      vertex -5.32523 0 2.92448
    endloop
  endfacet
  facet normal 0 0 -1
    outer loop
      vertex -8.45 1 0
      vertex -0.300003 1 0
      vertex -1.3 0 0
    endloop
  endfacet
  facet normal 0 0 -1
    outer loop
      vertex -0.300003 1 0
      vertex -8.45 1 0
      vertex -0.300003 39.01 0
    endloop
  endfacet
  facet normal 0 0 -1
    outer loop
      vertex -8.45 1 0
      vertex -1.3 0 0
      vertex -7.45 0 0
    endloop
  endfacet
  facet normal 0 0 -1
    outer loop
      vertex -8.45 39.01 0
      vertex -0.300003 39.01 0
      vertex -8.45 1 0
    endloop
  endfacet
  facet normal 0 0 -1
    outer loop
      vertex -0.300003 39.01 0
      vertex -8.45 39.01 0
      vertex -1.3 40.01 0
    endloop
  endfacet
  facet normal -0 0 -1
    outer loop
      vertex -1.3 40.01 0
      vertex -8.45 39.01 0
      vertex -7.45 40.01 0
    endloop
  endfacet
  facet normal -0 0 1
    outer loop
      vertex -4.63086 39.01 4.06696
      vertex -4.11914 1 4.06696
      vertex -4.11914 39.01 4.06696
    endloop
  endfacet
  facet normal 0 0 1
    outer loop
      vertex -4.11914 1 4.06696
      vertex -4.63086 39.01 4.06696
      vertex -4.63086 1 4.06696
    endloop
  endfacet
  facet normal -0.706409 -0.706407 0.0444542
    outer loop
      vertex -8.41786 1 0.510727
      vertex -8.45 1 0
      vertex -7.42575 0 0.385391
    endloop
  endfacet
  facet normal 0.673158 -0.706413 0.218722
    outer loop
      vertex -0.428024 1 1.0134
      vertex -1.51595 0 1.13197
      vertex -1.39662 0 0.764709
    endloop
  endfacet
  facet normal 0.5878 0 0.809006
    outer loop
      vertex -2.19151 39.01 3.44063
      vertex -1.77751 1 3.13983
      vertex -1.77751 39.01 3.13983
    endloop
  endfacet
  facet normal 0.5878 0 0.809006
    outer loop
      vertex -1.77751 1 3.13983
      vertex -2.19151 39.01 3.44063
      vertex -2.19151 1 3.44063
    endloop
  endfacet
  facet normal 0.770507 -0 0.637432
    outer loop
      vertex -1.40446 1 2.78952
      vertex -1.07826 39.01 2.39522
      vertex -1.40446 39.01 2.78952
    endloop
  endfacet
  facet normal 0.770507 0 0.637432
    outer loop
      vertex -1.07826 39.01 2.39522
      vertex -1.40446 1 2.78952
      vertex -1.07826 1 2.39522
    endloop
  endfacet
  facet normal 0.695269 -0.706408 0.132624
    outer loop
      vertex -0.428024 1 1.0134
      vertex -1.32425 0 0.385391
      vertex -0.332138 1 0.510727
    endloop
  endfacet
  facet normal 0.481751 0 0.876308
    outer loop
      vertex -2.63995 39.01 3.68716
      vertex -2.19151 1 3.44063
      vertex -2.19151 39.01 3.44063
    endloop
  endfacet
  facet normal 0.481751 0 0.876308
    outer loop
      vertex -2.19151 1 3.44063
      vertex -2.63995 39.01 3.68716
      vertex -2.63995 1 3.68716
    endloop
  endfacet
  facet normal 0.0887267 -0.706409 0.70222
    outer loop
      vertex -3.61143 1 4.00281
      vertex -4.11914 1 4.06696
      vertex -3.79881 0 3.02052
    endloop
  endfacet
  facet normal 0.125355 0 0.992112
    outer loop
      vertex -4.11914 39.01 4.06696
      vertex -3.61143 1 4.00281
      vertex -3.61143 39.01 4.00281
    endloop
  endfacet
  facet normal 0.125355 0 0.992112
    outer loop
      vertex -3.61143 1 4.00281
      vertex -4.11914 39.01 4.06696
      vertex -4.11914 1 4.06696
    endloop
  endfacet
  facet normal 0.340985 -0.706409 0.620254
    outer loop
      vertex -2.63995 1 3.68716
      vertex -3.06573 0 2.78233
      vertex -2.72734 0 2.5963
    endloop
  endfacet
  facet normal 0.706409 -0.706407 0.0444494
    outer loop
      vertex -0.300003 1 0
      vertex -1.32425 0 0.385391
      vertex -1.3 0 0
    endloop
  endfacet
  facet normal -0.673157 -0.706414 0.218721
    outer loop
      vertex -7.23405 0 1.13197
      vertex -8.32198 1 1.0134
      vertex -7.35338 0 0.764709
    endloop
  endfacet
  facet normal 0.951056 -0 0.309018
    outer loop
      vertex -0.586166 1 1.50011
      vertex -0.428024 39.01 1.0134
      vertex -0.586166 39.01 1.50011
    endloop
  endfacet
  facet normal 0.951056 0 0.309018
    outer loop
      vertex -0.428024 39.01 1.0134
      vertex -0.586166 1 1.50011
      vertex -0.428024 1 1.0134
    endloop
  endfacet
  facet normal 0.368124 0 0.929777
    outer loop
      vertex -3.11577 39.01 3.87555
      vertex -2.63995 1 3.68716
      vertex -2.63995 39.01 3.68716
    endloop
  endfacet
  facet normal 0.368124 0 0.929777
    outer loop
      vertex -2.63995 1 3.68716
      vertex -3.11577 39.01 3.87555
      vertex -3.11577 1 3.87555
    endloop
  endfacet
  facet normal 0.484523 -0.706404 0.515976
    outer loop
      vertex -1.77751 1 3.13983
      vertex -2.13342 0 2.10498
      vertex -1.40446 1 2.78952
    endloop
  endfacet
  facet normal -0.695271 -0.706407 0.132616
    outer loop
      vertex -8.32198 1 1.0134
      vertex -8.41786 1 0.510727
      vertex -7.42575 0 0.385391
    endloop
  endfacet
  facet normal 0.545371 -0.706404 0.45118
    outer loop
      vertex -1.40446 1 2.78952
      vertex -2.13342 0 2.10498
      vertex -1.07826 1 2.39522
    endloop
  endfacet
  facet normal 0.673158 -0.706412 0.218723
    outer loop
      vertex -0.586166 1 1.50011
      vertex -1.51595 0 1.13197
      vertex -0.428024 1 1.0134
    endloop
  endfacet
  facet normal 0.0887121 -0.706413 0.702219
    outer loop
      vertex -4.11914 1 4.06696
      vertex -4.18193 0 3.06892
      vertex -3.79881 0 3.02052
    endloop
  endfacet
  facet normal 0.340985 -0.706409 0.620254
    outer loop
      vertex -2.63995 1 3.68716
      vertex -2.72734 0 2.5963
      vertex -2.19151 1 3.44063
    endloop
  endfacet
  facet normal 0.176019 -0.706409 0.685568
    outer loop
      vertex -3.61143 1 4.00281
      vertex -3.79881 0 3.02052
      vertex -3.11577 1 3.87555
    endloop
  endfacet
  facet normal 0.545384 -0.706411 0.451154
    outer loop
      vertex -1.07826 1 2.39522
      vertex -2.13342 0 2.10498
      vertex -1.88728 0 1.80743
    endloop
  endfacet
  facet normal -0.597616 -0.70641 0.379263
    outer loop
      vertex -6.86272 0 1.80743
      vertex -7.67174 1 2.39522
      vertex -7.06964 0 1.48138
    endloop
  endfacet
  facet normal -0.640438 -0.706406 0.30138
    outer loop
      vertex -7.94594 1 1.96313
      vertex -8.16383 1 1.50011
      vertex -7.06964 0 1.48138
    endloop
  endfacet
  facet normal -0.260559 -0.706409 0.658099
    outer loop
      vertex -5.63423 1 3.87555
      vertex -6.11005 1 3.68716
      vertex -5.68427 0 2.78233
    endloop
  endfacet
  facet normal 0.706409 -0.706407 0.0444473
    outer loop
      vertex -0.332138 1 0.510727
      vertex -1.32425 0 0.385391
      vertex -0.300003 1 0
    endloop
  endfacet
  facet normal 0.416038 -0.706409 0.572624
    outer loop
      vertex -2.19151 1 3.44063
      vertex -2.72734 0 2.5963
      vertex -2.41493 0 2.36932
    endloop
  endfacet
  facet normal -0.5878 0 0.809006
    outer loop
      vertex -6.97249 39.01 3.13983
      vertex -6.55849 1 3.44063
      vertex -6.55849 39.01 3.44063
    endloop
  endfacet
  facet normal -0.5878 0 0.809006
    outer loop
      vertex -6.55849 1 3.44063
      vertex -6.97249 39.01 3.13983
      vertex -6.97249 1 3.13983
    endloop
  endfacet
  facet normal 0.176028 -0.706411 0.685563
    outer loop
      vertex -3.11577 1 3.87555
      vertex -3.79881 0 3.02052
      vertex -3.42477 0 2.92448
    endloop
  endfacet
  facet normal 0.260553 -0.706411 0.6581
    outer loop
      vertex -3.11577 1 3.87555
      vertex -3.42477 0 2.92448
      vertex -3.06573 0 2.78233
    endloop
  endfacet
  facet normal -0.545371 -0.706404 0.45118
    outer loop
      vertex -7.34554 1 2.78952
      vertex -7.67174 1 2.39522
      vertex -6.61658 0 2.10498
    endloop
  endfacet
  facet normal -0.673156 -0.706411 0.218733
    outer loop
      vertex -8.16383 1 1.50011
      vertex -8.32198 1 1.0134
      vertex -7.23405 0 1.13197
    endloop
  endfacet
  facet normal -0.176028 -0.706411 0.685563
    outer loop
      vertex -4.95119 0 3.02052
      vertex -5.63423 1 3.87555
      vertex -5.32523 0 2.92448
    endloop
  endfacet
  facet normal -0.125355 0 0.992112
    outer loop
      vertex -5.13857 39.01 4.00281
      vertex -4.63086 1 4.06696
      vertex -4.63086 39.01 4.06696
    endloop
  endfacet
  facet normal -0.125355 0 0.992112
    outer loop
      vertex -4.63086 1 4.06696
      vertex -5.13857 39.01 4.00281
      vertex -5.13857 1 4.00281
    endloop
  endfacet
  facet normal -0.545384 -0.706411 0.451154
    outer loop
      vertex -6.61658 0 2.10498
      vertex -7.67174 1 2.39522
      vertex -6.86272 0 1.80743
    endloop
  endfacet
  facet normal 0.248683 0 0.968585
    outer loop
      vertex -3.61143 39.01 4.00281
      vertex -3.11577 1 3.87555
      vertex -3.11577 39.01 3.87555
    endloop
  endfacet
  facet normal 0.248683 0 0.968585
    outer loop
      vertex -3.11577 1 3.87555
      vertex -3.61143 39.01 4.00281
      vertex -3.61143 1 4.00281
    endloop
  endfacet
  facet normal 0.260559 -0.706409 0.658099
    outer loop
      vertex -2.63995 1 3.68716
      vertex -3.11577 1 3.87555
      vertex -3.06573 0 2.78233
    endloop
  endfacet
  facet normal -0.340985 -0.706409 0.620254
    outer loop
      vertex -5.68427 0 2.78233
      vertex -6.11005 1 3.68716
      vertex -6.02266 0 2.5963
    endloop
  endfacet
  facet normal 0.904816 -0 0.425804
    outer loop
      vertex -0.804062 1 1.96313
      vertex -0.586166 39.01 1.50011
      vertex -0.804062 39.01 1.96313
    endloop
  endfacet
  facet normal 0.904816 0 0.425804
    outer loop
      vertex -0.586166 39.01 1.50011
      vertex -0.804062 1 1.96313
      vertex -0.586166 1 1.50011
    endloop
  endfacet
  facet normal 0.998026 -0 0.0627959
    outer loop
      vertex -0.332138 1 0.510727
      vertex -0.300003 39.01 0
      vertex -0.332138 39.01 0.510727
    endloop
  endfacet
  facet normal 0.998026 0 0.0627959
    outer loop
      vertex -0.300003 39.01 0
      vertex -0.332138 1 0.510727
      vertex -0.300003 1 0
    endloop
  endfacet
  facet normal -0.597629 -0.706406 0.379249
    outer loop
      vertex -7.67174 1 2.39522
      vertex -7.94594 1 1.96313
      vertex -7.06964 0 1.48138
    endloop
  endfacet
  facet normal 0.695259 -0.706413 0.132648
    outer loop
      vertex -0.428024 1 1.0134
      vertex -1.39662 0 0.764709
      vertex -1.32425 0 0.385391
    endloop
  endfacet
  facet normal -0.998026 0 0.0628057
    outer loop
      vertex -8.45 1 0
      vertex -8.41786 39.01 0.510727
      vertex -8.45 39.01 0
    endloop
  endfacet
  facet normal -0.998026 0 0.0628057
    outer loop
      vertex -8.41786 39.01 0.510727
      vertex -8.45 1 0
      vertex -8.41786 1 0.510727
    endloop
  endfacet
  facet normal 0.844341 -0 0.535806
    outer loop
      vertex -1.07826 1 2.39522
      vertex -0.804062 39.01 1.96313
      vertex -1.07826 39.01 2.39522
    endloop
  endfacet
  facet normal 0.844341 0 0.535806
    outer loop
      vertex -0.804062 39.01 1.96313
      vertex -1.07826 1 2.39522
      vertex -0.804062 1 1.96313
    endloop
  endfacet
  facet normal 0.597616 -0.70641 0.379263
    outer loop
      vertex -1.07826 1 2.39522
      vertex -1.88728 0 1.80743
      vertex -1.68036 0 1.48138
    endloop
  endfacet
  facet normal -0.640444 -0.706412 0.301352
    outer loop
      vertex -7.06964 0 1.48138
      vertex -8.16383 1 1.50011
      vertex -7.23405 0 1.13197
    endloop
  endfacet
  facet normal -0.0887121 -0.706413 0.702219
    outer loop
      vertex -4.63086 1 4.06696
      vertex -4.95119 0 3.02052
      vertex -4.56807 0 3.06892
    endloop
  endfacet
  facet normal -0.484523 -0.706404 0.515976
    outer loop
      vertex -6.97249 1 3.13983
      vertex -7.34554 1 2.78952
      vertex -6.61658 0 2.10498
    endloop
  endfacet
  facet normal -0.484511 -0.706407 0.515982
    outer loop
      vertex -6.33507 0 2.36932
      vertex -6.97249 1 3.13983
      vertex -6.61658 0 2.10498
    endloop
  endfacet
  facet normal -0.416048 -0.706407 0.57262
    outer loop
      vertex -6.55849 1 3.44063
      vertex -6.97249 1 3.13983
      vertex -6.33507 0 2.36932
    endloop
  endfacet
  facet normal -0.416038 -0.706409 0.572624
    outer loop
      vertex -6.02266 0 2.5963
      vertex -6.55849 1 3.44063
      vertex -6.33507 0 2.36932
    endloop
  endfacet
  facet normal 0.982289 -0 0.187374
    outer loop
      vertex -0.428024 1 1.0134
      vertex -0.332138 39.01 0.510727
      vertex -0.428024 39.01 1.0134
    endloop
  endfacet
  facet normal 0.982289 0 0.187374
    outer loop
      vertex -0.332138 39.01 0.510727
      vertex -0.428024 1 1.0134
      vertex -0.332138 1 0.510727
    endloop
  endfacet
  facet normal 0.416048 -0.706407 0.57262
    outer loop
      vertex -2.19151 1 3.44063
      vertex -2.41493 0 2.36932
      vertex -1.77751 1 3.13983
    endloop
  endfacet
  facet normal 0.484511 -0.706407 0.515982
    outer loop
      vertex -1.77751 1 3.13983
      vertex -2.41493 0 2.36932
      vertex -2.13342 0 2.10498
    endloop
  endfacet
  facet normal -0.368124 0 0.929777
    outer loop
      vertex -6.11005 39.01 3.68716
      vertex -5.63423 1 3.87555
      vertex -5.63423 39.01 3.87555
    endloop
  endfacet
  facet normal -0.368124 0 0.929777
    outer loop
      vertex -5.63423 1 3.87555
      vertex -6.11005 39.01 3.68716
      vertex -6.11005 1 3.68716
    endloop
  endfacet
  facet normal -0.248683 0 0.968585
    outer loop
      vertex -5.63423 39.01 3.87555
      vertex -5.13857 1 4.00281
      vertex -5.13857 39.01 4.00281
    endloop
  endfacet
  facet normal -0.248683 0 0.968585
    outer loop
      vertex -5.13857 1 4.00281
      vertex -5.63423 39.01 3.87555
      vertex -5.63423 1 3.87555
    endloop
  endfacet
  facet normal 0.597631 -0.706405 0.379248
    outer loop
      vertex -1.07826 1 2.39522
      vertex -1.68036 0 1.48138
      vertex -0.804062 1 1.96313
    endloop
  endfacet
  facet normal -0.770507 0 0.637432
    outer loop
      vertex -7.67174 1 2.39522
      vertex -7.34554 39.01 2.78952
      vertex -7.67174 39.01 2.39522
    endloop
  endfacet
  facet normal -0.770507 0 0.637432
    outer loop
      vertex -7.34554 39.01 2.78952
      vertex -7.67174 1 2.39522
      vertex -7.34554 1 2.78952
    endloop
  endfacet
  facet normal 0.640435 -0.706405 0.301387
    outer loop
      vertex -0.804062 1 1.96313
      vertex -1.68036 0 1.48138
      vertex -0.586166 1 1.50011
    endloop
  endfacet
  facet normal 0.640443 -0.706413 0.301352
    outer loop
      vertex -0.586166 1 1.50011
      vertex -1.68036 0 1.48138
      vertex -1.51595 0 1.13197
    endloop
  endfacet
  facet normal -0.982291 0 0.187362
    outer loop
      vertex -8.41786 1 0.510727
      vertex -8.32198 39.01 1.0134
      vertex -8.41786 39.01 0.510727
    endloop
  endfacet
  facet normal -0.982291 0 0.187362
    outer loop
      vertex -8.32198 39.01 1.0134
      vertex -8.41786 1 0.510727
      vertex -8.32198 1 1.0134
    endloop
  endfacet
  facet normal -0.176019 -0.706409 0.685568
    outer loop
      vertex -5.13857 1 4.00281
      vertex -5.63423 1 3.87555
      vertex -4.95119 0 3.02052
    endloop
  endfacet
  facet normal -0.0887267 -0.706409 0.70222
    outer loop
      vertex -4.63086 1 4.06696
      vertex -5.13857 1 4.00281
      vertex -4.95119 0 3.02052
    endloop
  endfacet
  facet normal -0.844339 0 0.535809
    outer loop
      vertex -7.94594 1 1.96313
      vertex -7.67174 39.01 2.39522
      vertex -7.94594 39.01 1.96313
    endloop
  endfacet
  facet normal -0.844339 0 0.535809
    outer loop
      vertex -7.67174 39.01 2.39522
      vertex -7.94594 1 1.96313
      vertex -7.67174 1 2.39522
    endloop
  endfacet
  facet normal -0.706408 -0.706408 0.0444494
    outer loop
      vertex -7.42575 0 0.385391
      vertex -8.45 1 0
      vertex -7.45 0 0
    endloop
  endfacet
  facet normal -0.695257 -0.706415 0.132648
    outer loop
      vertex -7.35338 0 0.764709
      vertex -8.32198 1 1.0134
      vertex -7.42575 0 0.385391
    endloop
  endfacet
  facet normal -0.68454 0 0.728976
    outer loop
      vertex -7.34554 39.01 2.78952
      vertex -6.97249 1 3.13983
      vertex -6.97249 39.01 3.13983
    endloop
  endfacet
  facet normal -0.68454 0 0.728976
    outer loop
      vertex -6.97249 1 3.13983
      vertex -7.34554 39.01 2.78952
      vertex -7.34554 1 2.78952
    endloop
  endfacet
  facet normal -0.481751 0 0.876308
    outer loop
      vertex -6.55849 39.01 3.44063
      vertex -6.11005 1 3.68716
      vertex -6.11005 39.01 3.68716
    endloop
  endfacet
  facet normal -0.481751 0 0.876308
    outer loop
      vertex -6.11005 1 3.68716
      vertex -6.55849 39.01 3.44063
      vertex -6.55849 1 3.44063
    endloop
  endfacet
  facet normal 0 -1 0
    outer loop
      vertex -4.95119 0 3.02052
      vertex -4.18193 0 3.06892
      vertex -4.56807 0 3.06892
    endloop
  endfacet
  facet normal 0 -1 0
    outer loop
      vertex -4.95119 0 3.02052
      vertex -3.79881 0 3.02052
      vertex -4.18193 0 3.06892
    endloop
  endfacet
  facet normal 0 -1 0
    outer loop
      vertex -5.32523 0 2.92448
      vertex -3.79881 0 3.02052
      vertex -4.95119 0 3.02052
    endloop
  endfacet
  facet normal 0 -1 0
    outer loop
      vertex -5.32523 0 2.92448
      vertex -3.42477 0 2.92448
      vertex -3.79881 0 3.02052
    endloop
  endfacet
  facet normal 0 -1 0
    outer loop
      vertex -5.68427 0 2.78233
      vertex -3.42477 0 2.92448
      vertex -5.32523 0 2.92448
    endloop
  endfacet
  facet normal 0 -1 0
    outer loop
      vertex -5.68427 0 2.78233
      vertex -3.06573 0 2.78233
      vertex -3.42477 0 2.92448
    endloop
  endfacet
  facet normal 0 -1 0
    outer loop
      vertex -6.02266 0 2.5963
      vertex -3.06573 0 2.78233
      vertex -5.68427 0 2.78233
    endloop
  endfacet
  facet normal 0 -1 0
    outer loop
      vertex -6.02266 0 2.5963
      vertex -2.72734 0 2.5963
      vertex -3.06573 0 2.78233
    endloop
  endfacet
  facet normal 0 -1 0
    outer loop
      vertex -6.33507 0 2.36932
      vertex -2.72734 0 2.5963
      vertex -6.02266 0 2.5963
    endloop
  endfacet
  facet normal 0 -1 0
    outer loop
      vertex -6.33507 0 2.36932
      vertex -2.41493 0 2.36932
      vertex -2.72734 0 2.5963
    endloop
  endfacet
  facet normal 0 -1 0
    outer loop
      vertex -6.61658 0 2.10498
      vertex -2.41493 0 2.36932
      vertex -6.33507 0 2.36932
    endloop
  endfacet
  facet normal 0 -1 0
    outer loop
      vertex -6.61658 0 2.10498
      vertex -2.13342 0 2.10498
      vertex -2.41493 0 2.36932
    endloop
  endfacet
  facet normal 0 -1 0
    outer loop
      vertex -6.86272 0 1.80743
      vertex -2.13342 0 2.10498
      vertex -6.61658 0 2.10498
    endloop
  endfacet
  facet normal 0 -1 0
    outer loop
      vertex -6.86272 0 1.80743
      vertex -1.88728 0 1.80743
      vertex -2.13342 0 2.10498
    endloop
  endfacet
  facet normal 0 -1 0
    outer loop
      vertex -7.06964 0 1.48138
      vertex -1.88728 0 1.80743
      vertex -6.86272 0 1.80743
    endloop
  endfacet
  facet normal 0 -1 0
    outer loop
      vertex -7.06964 0 1.48138
      vertex -1.68036 0 1.48138
      vertex -1.88728 0 1.80743
    endloop
  endfacet
  facet normal 0 -1 0
    outer loop
      vertex -7.23405 0 1.13197
      vertex -1.68036 0 1.48138
      vertex -7.06964 0 1.48138
    endloop
  endfacet
  facet normal 0 -1 0
    outer loop
      vertex -7.23405 0 1.13197
      vertex -1.51595 0 1.13197
      vertex -1.68036 0 1.48138
    endloop
  endfacet
  facet normal 0 -1 0
    outer loop
      vertex -7.35338 0 0.764709
      vertex -1.51595 0 1.13197
      vertex -7.23405 0 1.13197
    endloop
  endfacet
  facet normal 0 -1 0
    outer loop
      vertex -7.35338 0 0.764709
      vertex -1.39662 0 0.764709
      vertex -1.51595 0 1.13197
    endloop
  endfacet
  facet normal 0 -1 0
    outer loop
      vertex -7.42575 0 0.385391
      vertex -1.39662 0 0.764709
      vertex -7.35338 0 0.764709
    endloop
  endfacet
  facet normal 0 -1 0
    outer loop
      vertex -7.42575 0 0.385391
      vertex -1.32425 0 0.385391
      vertex -1.39662 0 0.764709
    endloop
  endfacet
  facet normal 0 -1 0
    outer loop
      vertex -7.45 0 0
      vertex -1.32425 0 0.385391
      vertex -7.42575 0 0.385391
    endloop
  endfacet
  facet normal 0 -1 -0
    outer loop
      vertex -1.32425 0 0.385391
      vertex -7.45 0 0
      vertex -1.3 0 0
    endloop
  endfacet
  facet normal -0.673156 0.706411 0.218733
    outer loop
      vertex -7.23405 40.01 1.13197
      vertex -8.32198 39.01 1.0134
      vertex -8.16383 39.01 1.50011
    endloop
  endfacet
  facet normal -0.484511 0.706407 0.515982
    outer loop
      vertex -6.61658 40.01 2.10498
      vertex -6.97249 39.01 3.13983
      vertex -6.33507 40.01 2.36932
    endloop
  endfacet
  facet normal -0.597616 0.70641 0.379263
    outer loop
      vertex -7.06964 40.01 1.48138
      vertex -7.67174 39.01 2.39522
      vertex -6.86272 40.01 1.80743
    endloop
  endfacet
  facet normal -0.545371 0.706404 0.45118
    outer loop
      vertex -6.61658 40.01 2.10498
      vertex -7.67174 39.01 2.39522
      vertex -7.34554 39.01 2.78952
    endloop
  endfacet
  facet normal -0.416038 0.706409 0.572624
    outer loop
      vertex -6.33507 40.01 2.36932
      vertex -6.55849 39.01 3.44063
      vertex -6.02266 40.01 2.5963
    endloop
  endfacet
  facet normal 0.545384 0.706411 0.451154
    outer loop
      vertex -1.88728 40.01 1.80743
      vertex -2.13342 40.01 2.10498
      vertex -1.07826 39.01 2.39522
    endloop
  endfacet
  facet normal -0.706408 0.706408 0.0444494
    outer loop
      vertex -7.45 40.01 0
      vertex -8.45 39.01 0
      vertex -7.42575 40.01 0.385391
    endloop
  endfacet
  facet normal 0.484523 0.706404 0.515976
    outer loop
      vertex -1.40446 39.01 2.78952
      vertex -2.13342 40.01 2.10498
      vertex -1.77751 39.01 3.13983
    endloop
  endfacet
  facet normal 0.640435 0.706405 0.301387
    outer loop
      vertex -0.586166 39.01 1.50011
      vertex -1.68036 40.01 1.48138
      vertex -0.804062 39.01 1.96313
    endloop
  endfacet
  facet normal 0.340985 0.706409 0.620254
    outer loop
      vertex -2.19151 39.01 3.44063
      vertex -2.72734 40.01 2.5963
      vertex -2.63995 39.01 3.68716
    endloop
  endfacet
  facet normal 0.695269 0.706408 0.132624
    outer loop
      vertex -0.332138 39.01 0.510727
      vertex -1.32425 40.01 0.385391
      vertex -0.428024 39.01 1.0134
    endloop
  endfacet
  facet normal 0.416048 0.706407 0.57262
    outer loop
      vertex -1.77751 39.01 3.13983
      vertex -2.41493 40.01 2.36932
      vertex -2.19151 39.01 3.44063
    endloop
  endfacet
  facet normal -0.340985 0.706409 0.620254
    outer loop
      vertex -6.02266 40.01 2.5963
      vertex -6.55849 39.01 3.44063
      vertex -6.11005 39.01 3.68716
    endloop
  endfacet
  facet normal -0.695271 0.706407 0.132616
    outer loop
      vertex -7.42575 40.01 0.385391
      vertex -8.41786 39.01 0.510727
      vertex -8.32198 39.01 1.0134
    endloop
  endfacet
  facet normal -0.0887267 0.706409 0.70222
    outer loop
      vertex -4.95119 40.01 3.02052
      vertex -5.13857 39.01 4.00281
      vertex -4.63086 39.01 4.06696
    endloop
  endfacet
  facet normal -0.176019 0.706409 0.685568
    outer loop
      vertex -4.95119 40.01 3.02052
      vertex -5.63423 39.01 3.87555
      vertex -5.13857 39.01 4.00281
    endloop
  endfacet
  facet normal -0.695257 0.706415 0.132648
    outer loop
      vertex -7.42575 40.01 0.385391
      vertex -8.32198 39.01 1.0134
      vertex -7.35338 40.01 0.764709
    endloop
  endfacet
  facet normal -0.673157 0.706414 0.218721
    outer loop
      vertex -7.35338 40.01 0.764709
      vertex -8.32198 39.01 1.0134
      vertex -7.23405 40.01 1.13197
    endloop
  endfacet
  facet normal -0.545384 0.706411 0.451154
    outer loop
      vertex -6.86272 40.01 1.80743
      vertex -7.67174 39.01 2.39522
      vertex -6.61658 40.01 2.10498
    endloop
  endfacet
  facet normal 0.545371 0.706404 0.45118
    outer loop
      vertex -1.07826 39.01 2.39522
      vertex -2.13342 40.01 2.10498
      vertex -1.40446 39.01 2.78952
    endloop
  endfacet
  facet normal 0.706409 0.706407 0.0444494
    outer loop
      vertex -1.3 40.01 0
      vertex -1.32425 40.01 0.385391
      vertex -0.300003 39.01 0
    endloop
  endfacet
  facet normal -0.340985 0.706409 0.620254
    outer loop
      vertex -6.02266 40.01 2.5963
      vertex -6.11005 39.01 3.68716
      vertex -5.68427 40.01 2.78233
    endloop
  endfacet
  facet normal -0.706409 0.706407 0.0444542
    outer loop
      vertex -7.42575 40.01 0.385391
      vertex -8.45 39.01 0
      vertex -8.41786 39.01 0.510727
    endloop
  endfacet
  facet normal -0.0887121 0.706413 0.702219
    outer loop
      vertex -4.56807 40.01 3.06892
      vertex -4.95119 40.01 3.02052
      vertex -4.63086 39.01 4.06696
    endloop
  endfacet
  facet normal 0.597631 0.706405 0.379248
    outer loop
      vertex -0.804062 39.01 1.96313
      vertex -1.68036 40.01 1.48138
      vertex -1.07826 39.01 2.39522
    endloop
  endfacet
  facet normal 0.597616 0.70641 0.379263
    outer loop
      vertex -1.68036 40.01 1.48138
      vertex -1.88728 40.01 1.80743
      vertex -1.07826 39.01 2.39522
    endloop
  endfacet
  facet normal 0.0887121 0.706413 0.702219
    outer loop
      vertex -3.79881 40.01 3.02052
      vertex -4.18193 40.01 3.06892
      vertex -4.11914 39.01 4.06696
    endloop
  endfacet
  facet normal 0.640443 0.706413 0.301352
    outer loop
      vertex -1.51595 40.01 1.13197
      vertex -1.68036 40.01 1.48138
      vertex -0.586166 39.01 1.50011
    endloop
  endfacet
  facet normal 0.706409 0.706407 0.0444473
    outer loop
      vertex -0.300003 39.01 0
      vertex -1.32425 40.01 0.385391
      vertex -0.332138 39.01 0.510727
    endloop
  endfacet
  facet normal -0.484523 0.706404 0.515976
    outer loop
      vertex -6.61658 40.01 2.10498
      vertex -7.34554 39.01 2.78952
      vertex -6.97249 39.01 3.13983
    endloop
  endfacet
  facet normal 0.340985 0.706409 0.620254
    outer loop
      vertex -2.72734 40.01 2.5963
      vertex -3.06573 40.01 2.78233
      vertex -2.63995 39.01 3.68716
    endloop
  endfacet
  facet normal 0.176019 0.706409 0.685568
    outer loop
      vertex -3.11577 39.01 3.87555
      vertex -3.79881 40.01 3.02052
      vertex -3.61143 39.01 4.00281
    endloop
  endfacet
  facet normal -0.416048 0.706407 0.57262
    outer loop
      vertex -6.33507 40.01 2.36932
      vertex -6.97249 39.01 3.13983
      vertex -6.55849 39.01 3.44063
    endloop
  endfacet
  facet normal -0.640444 0.706412 0.301352
    outer loop
      vertex -7.23405 40.01 1.13197
      vertex -8.16383 39.01 1.50011
      vertex -7.06964 40.01 1.48138
    endloop
  endfacet
  facet normal 0.176028 0.706411 0.685563
    outer loop
      vertex -3.42477 40.01 2.92448
      vertex -3.79881 40.01 3.02052
      vertex -3.11577 39.01 3.87555
    endloop
  endfacet
  facet normal 0.260559 0.706409 0.658099
    outer loop
      vertex -3.06573 40.01 2.78233
      vertex -3.11577 39.01 3.87555
      vertex -2.63995 39.01 3.68716
    endloop
  endfacet
  facet normal 0 1 0
    outer loop
      vertex -3.79881 40.01 3.02052
      vertex -4.56807 40.01 3.06892
      vertex -4.18193 40.01 3.06892
    endloop
  endfacet
  facet normal 0 1 0
    outer loop
      vertex -3.79881 40.01 3.02052
      vertex -4.95119 40.01 3.02052
      vertex -4.56807 40.01 3.06892
    endloop
  endfacet
  facet normal 0 1 0
    outer loop
      vertex -3.42477 40.01 2.92448
      vertex -4.95119 40.01 3.02052
      vertex -3.79881 40.01 3.02052
    endloop
  endfacet
  facet normal 0 1 0
    outer loop
      vertex -3.42477 40.01 2.92448
      vertex -5.32523 40.01 2.92448
      vertex -4.95119 40.01 3.02052
    endloop
  endfacet
  facet normal 0 1 0
    outer loop
      vertex -3.06573 40.01 2.78233
      vertex -5.32523 40.01 2.92448
      vertex -3.42477 40.01 2.92448
    endloop
  endfacet
  facet normal 0 1 0
    outer loop
      vertex -3.06573 40.01 2.78233
      vertex -5.68427 40.01 2.78233
      vertex -5.32523 40.01 2.92448
    endloop
  endfacet
  facet normal 0 1 0
    outer loop
      vertex -2.72734 40.01 2.5963
      vertex -5.68427 40.01 2.78233
      vertex -3.06573 40.01 2.78233
    endloop
  endfacet
  facet normal 0 1 0
    outer loop
      vertex -2.72734 40.01 2.5963
      vertex -6.02266 40.01 2.5963
      vertex -5.68427 40.01 2.78233
    endloop
  endfacet
  facet normal 0 1 0
    outer loop
      vertex -2.41493 40.01 2.36932
      vertex -6.02266 40.01 2.5963
      vertex -2.72734 40.01 2.5963
    endloop
  endfacet
  facet normal 0 1 0
    outer loop
      vertex -2.41493 40.01 2.36932
      vertex -6.33507 40.01 2.36932
      vertex -6.02266 40.01 2.5963
    endloop
  endfacet
  facet normal 0 1 0
    outer loop
      vertex -2.13342 40.01 2.10498
      vertex -6.33507 40.01 2.36932
      vertex -2.41493 40.01 2.36932
    endloop
  endfacet
  facet normal 0 1 0
    outer loop
      vertex -2.13342 40.01 2.10498
      vertex -6.61658 40.01 2.10498
      vertex -6.33507 40.01 2.36932
    endloop
  endfacet
  facet normal 0 1 0
    outer loop
      vertex -1.88728 40.01 1.80743
      vertex -6.61658 40.01 2.10498
      vertex -2.13342 40.01 2.10498
    endloop
  endfacet
  facet normal 0 1 0
    outer loop
      vertex -1.88728 40.01 1.80743
      vertex -6.86272 40.01 1.80743
      vertex -6.61658 40.01 2.10498
    endloop
  endfacet
  facet normal 0 1 0
    outer loop
      vertex -1.68036 40.01 1.48138
      vertex -6.86272 40.01 1.80743
      vertex -1.88728 40.01 1.80743
    endloop
  endfacet
  facet normal 0 1 0
    outer loop
      vertex -1.68036 40.01 1.48138
      vertex -7.06964 40.01 1.48138
      vertex -6.86272 40.01 1.80743
    endloop
  endfacet
  facet normal 0 1 0
    outer loop
      vertex -1.51595 40.01 1.13197
      vertex -7.06964 40.01 1.48138
      vertex -1.68036 40.01 1.48138
    endloop
  endfacet
  facet normal 0 1 0
    outer loop
      vertex -1.51595 40.01 1.13197
      vertex -7.23405 40.01 1.13197
      vertex -7.06964 40.01 1.48138
    endloop
  endfacet
  facet normal 0 1 0
    outer loop
      vertex -1.39662 40.01 0.764709
      vertex -7.23405 40.01 1.13197
      vertex -1.51595 40.01 1.13197
    endloop
  endfacet
  facet normal 0 1 0
    outer loop
      vertex -1.39662 40.01 0.764709
      vertex -7.35338 40.01 0.764709
      vertex -7.23405 40.01 1.13197
    endloop
  endfacet
  facet normal 0 1 0
    outer loop
      vertex -1.32425 40.01 0.385391
      vertex -7.35338 40.01 0.764709
      vertex -1.39662 40.01 0.764709
    endloop
  endfacet
  facet normal 0 1 0
    outer loop
      vertex -1.32425 40.01 0.385391
      vertex -7.42575 40.01 0.385391
      vertex -7.35338 40.01 0.764709
    endloop
  endfacet
  facet normal 0 1 0
    outer loop
      vertex -1.3 40.01 0
      vertex -7.42575 40.01 0.385391
      vertex -1.32425 40.01 0.385391
    endloop
  endfacet
  facet normal 0 1 0
    outer loop
      vertex -7.42575 40.01 0.385391
      vertex -1.3 40.01 0
      vertex -7.45 40.01 0
    endloop
  endfacet
  facet normal 0.673158 0.706412 0.218723
    outer loop
      vertex -0.428024 39.01 1.0134
      vertex -1.51595 40.01 1.13197
      vertex -0.586166 39.01 1.50011
    endloop
  endfacet
  facet normal 0.416038 0.706409 0.572624
    outer loop
      vertex -2.41493 40.01 2.36932
      vertex -2.72734 40.01 2.5963
      vertex -2.19151 39.01 3.44063
    endloop
  endfacet
  facet normal 0.484511 0.706407 0.515982
    outer loop
      vertex -2.13342 40.01 2.10498
      vertex -2.41493 40.01 2.36932
      vertex -1.77751 39.01 3.13983
    endloop
  endfacet
  facet normal -0.176028 0.706411 0.685563
    outer loop
      vertex -5.32523 40.01 2.92448
      vertex -5.63423 39.01 3.87555
      vertex -4.95119 40.01 3.02052
    endloop
  endfacet
  facet normal -0.260553 0.706411 0.6581
    outer loop
      vertex -5.32523 40.01 2.92448
      vertex -5.68427 40.01 2.78233
      vertex -5.63423 39.01 3.87555
    endloop
  endfacet
  facet normal 0.673158 0.706413 0.218722
    outer loop
      vertex -1.39662 40.01 0.764709
      vertex -1.51595 40.01 1.13197
      vertex -0.428024 39.01 1.0134
    endloop
  endfacet
  facet normal -0.260559 0.706409 0.658099
    outer loop
      vertex -5.68427 40.01 2.78233
      vertex -6.11005 39.01 3.68716
      vertex -5.63423 39.01 3.87555
    endloop
  endfacet
  facet normal 0.0887267 0.706409 0.70222
    outer loop
      vertex -3.79881 40.01 3.02052
      vertex -4.11914 39.01 4.06696
      vertex -3.61143 39.01 4.00281
    endloop
  endfacet
  facet normal -0.597629 0.706406 0.379249
    outer loop
      vertex -7.06964 40.01 1.48138
      vertex -7.94594 39.01 1.96313
      vertex -7.67174 39.01 2.39522
    endloop
  endfacet
  facet normal 0.695259 0.706413 0.132648
    outer loop
      vertex -1.32425 40.01 0.385391
      vertex -1.39662 40.01 0.764709
      vertex -0.428024 39.01 1.0134
    endloop
  endfacet
  facet normal -0.640438 0.706406 0.30138
    outer loop
      vertex -7.06964 40.01 1.48138
      vertex -8.16383 39.01 1.50011
      vertex -7.94594 39.01 1.96313
    endloop
  endfacet
  facet normal 0.260553 0.706411 0.6581
    outer loop
      vertex -3.06573 40.01 2.78233
      vertex -3.42477 40.01 2.92448
      vertex -3.11577 39.01 3.87555
    endloop
  endfacet
  facet normal -0 0.706413 0.7078
    outer loop
      vertex -4.56807 40.01 3.06892
      vertex -4.11914 39.01 4.06696
      vertex -4.18193 40.01 3.06892
    endloop
  endfacet
  facet normal 0 0.706413 0.7078
    outer loop
      vertex -4.11914 39.01 4.06696
      vertex -4.56807 40.01 3.06892
      vertex -4.63086 39.01 4.06696
    endloop
  endfacet
  facet normal 0.68454 0 0.728976
    outer loop
      vertex 6.97249 39.01 3.13983
      vertex 7.34554 1 2.78952
      vertex 7.34554 39.01 2.78952
    endloop
  endfacet
  facet normal 0.68454 0 0.728976
    outer loop
      vertex 7.34554 1 2.78952
      vertex 6.97249 39.01 3.13983
      vertex 6.97249 1 3.13983
    endloop
  endfacet
  facet normal -0.904816 0 0.425804
    outer loop
      vertex 0.586166 1 1.50011
      vertex 0.804062 39.01 1.96313
      vertex 0.586166 39.01 1.50011
    endloop
  endfacet
  facet normal -0.904816 0 0.425804
    outer loop
      vertex 0.804062 39.01 1.96313
      vertex 0.586166 1 1.50011
      vertex 0.804062 1 1.96313
    endloop
  endfacet
  facet normal -0.340985 -0.706409 0.620254
    outer loop
      vertex 2.63995 1 3.68716
      vertex 2.19151 1 3.44063
      vertex 2.72734 0 2.5963
    endloop
  endfacet
  facet normal 0 -0.706413 0.7078
    outer loop
      vertex 4.63086 1 4.06696
      vertex 4.18193 0 3.06892
      vertex 4.56807 0 3.06892
    endloop
  endfacet
  facet normal 0 -0.706413 0.7078
    outer loop
      vertex 4.18193 0 3.06892
      vertex 4.63086 1 4.06696
      vertex 4.11914 1 4.06696
    endloop
  endfacet
  facet normal -0.951056 0 0.309018
    outer loop
      vertex 0.428024 1 1.0134
      vertex 0.586166 39.01 1.50011
      vertex 0.428024 39.01 1.0134
    endloop
  endfacet
  facet normal -0.951056 0 0.309018
    outer loop
      vertex 0.586166 39.01 1.50011
      vertex 0.428024 1 1.0134
      vertex 0.586166 1 1.50011
    endloop
  endfacet
  facet normal -0.260553 -0.706411 0.6581
    outer loop
      vertex 3.11577 1 3.87555
      vertex 3.06573 0 2.78233
      vertex 3.42477 0 2.92448
    endloop
  endfacet
  facet normal 0 0 -1
    outer loop
      vertex 0.300003 1 0
      vertex 8.45 1 0
      vertex 7.45 0 0
    endloop
  endfacet
  facet normal 0 0 -1
    outer loop
      vertex 8.45 1 0
      vertex 0.300003 1 0
      vertex 8.45 39.01 0
    endloop
  endfacet
  facet normal 0 0 -1
    outer loop
      vertex 0.300003 1 0
      vertex 7.45 0 0
      vertex 1.3 0 0
    endloop
  endfacet
  facet normal 0 0 -1
    outer loop
      vertex 0.300003 39.01 0
      vertex 8.45 39.01 0
      vertex 0.300003 1 0
    endloop
  endfacet
  facet normal 0 0 -1
    outer loop
      vertex 8.45 39.01 0
      vertex 0.300003 39.01 0
      vertex 7.45 40.01 0
    endloop
  endfacet
  facet normal -0 0 -1
    outer loop
      vertex 7.45 40.01 0
      vertex 0.300003 39.01 0
      vertex 1.3 40.01 0
    endloop
  endfacet
  facet normal -0 0 1
    outer loop
      vertex 4.11914 39.01 4.06696
      vertex 4.63086 1 4.06696
      vertex 4.63086 39.01 4.06696
    endloop
  endfacet
  facet normal 0 0 1
    outer loop
      vertex 4.63086 1 4.06696
      vertex 4.11914 39.01 4.06696
      vertex 4.11914 1 4.06696
    endloop
  endfacet
  facet normal -0.706409 -0.706407 0.0444473
    outer loop
      vertex 0.332138 1 0.510727
      vertex 0.300003 1 0
      vertex 1.32425 0 0.385391
    endloop
  endfacet
  facet normal 0.673157 -0.706414 0.218721
    outer loop
      vertex 8.32198 1 1.0134
      vertex 7.23405 0 1.13197
      vertex 7.35338 0 0.764709
    endloop
  endfacet
  facet normal 0.5878 0 0.809006
    outer loop
      vertex 6.55849 39.01 3.44063
      vertex 6.97249 1 3.13983
      vertex 6.97249 39.01 3.13983
    endloop
  endfacet
  facet normal 0.5878 0 0.809006
    outer loop
      vertex 6.97249 1 3.13983
      vertex 6.55849 39.01 3.44063
      vertex 6.55849 1 3.44063
    endloop
  endfacet
  facet normal 0.770507 -0 0.637432
    outer loop
      vertex 7.34554 1 2.78952
      vertex 7.67174 39.01 2.39522
      vertex 7.34554 39.01 2.78952
    endloop
  endfacet
  facet normal 0.770507 0 0.637432
    outer loop
      vertex 7.67174 39.01 2.39522
      vertex 7.34554 1 2.78952
      vertex 7.67174 1 2.39522
    endloop
  endfacet
  facet normal 0.695271 -0.706407 0.132616
    outer loop
      vertex 8.32198 1 1.0134
      vertex 7.42575 0 0.385391
      vertex 8.41786 1 0.510727
    endloop
  endfacet
  facet normal 0.481751 0 0.876308
    outer loop
      vertex 6.11005 39.01 3.68716
      vertex 6.55849 1 3.44063
      vertex 6.55849 39.01 3.44063
    endloop
  endfacet
  facet normal 0.481751 0 0.876308
    outer loop
      vertex 6.55849 1 3.44063
      vertex 6.11005 39.01 3.68716
      vertex 6.11005 1 3.68716
    endloop
  endfacet
  facet normal 0.0887267 -0.706409 0.70222
    outer loop
      vertex 5.13857 1 4.00281
      vertex 4.63086 1 4.06696
      vertex 4.95119 0 3.02052
    endloop
  endfacet
  facet normal 0.125355 0 0.992112
    outer loop
      vertex 4.63086 39.01 4.06696
      vertex 5.13857 1 4.00281
      vertex 5.13857 39.01 4.00281
    endloop
  endfacet
  facet normal 0.125355 0 0.992112
    outer loop
      vertex 5.13857 1 4.00281
      vertex 4.63086 39.01 4.06696
      vertex 4.63086 1 4.06696
    endloop
  endfacet
  facet normal 0.340985 -0.706409 0.620254
    outer loop
      vertex 6.11005 1 3.68716
      vertex 5.68427 0 2.78233
      vertex 6.02266 0 2.5963
    endloop
  endfacet
  facet normal 0.706408 -0.706408 0.0444494
    outer loop
      vertex 8.45 1 0
      vertex 7.42575 0 0.385391
      vertex 7.45 0 0
    endloop
  endfacet
  facet normal -0.673158 -0.706413 0.218722
    outer loop
      vertex 1.51595 0 1.13197
      vertex 0.428024 1 1.0134
      vertex 1.39662 0 0.764709
    endloop
  endfacet
  facet normal 0.951052 -0 0.309032
    outer loop
      vertex 8.16383 1 1.50011
      vertex 8.32198 39.01 1.0134
      vertex 8.16383 39.01 1.50011
    endloop
  endfacet
  facet normal 0.951052 0 0.309032
    outer loop
      vertex 8.32198 39.01 1.0134
      vertex 8.16383 1 1.50011
      vertex 8.32198 1 1.0134
    endloop
  endfacet
  facet normal 0.368124 0 0.929777
    outer loop
      vertex 5.63423 39.01 3.87555
      vertex 6.11005 1 3.68716
      vertex 6.11005 39.01 3.68716
    endloop
  endfacet
  facet normal 0.368124 0 0.929777
    outer loop
      vertex 6.11005 1 3.68716
      vertex 5.63423 39.01 3.87555
      vertex 5.63423 1 3.87555
    endloop
  endfacet
  facet normal 0.484523 -0.706404 0.515976
    outer loop
      vertex 6.97249 1 3.13983
      vertex 6.61658 0 2.10498
      vertex 7.34554 1 2.78952
    endloop
  endfacet
  facet normal -0.695269 -0.706408 0.132624
    outer loop
      vertex 0.428024 1 1.0134
      vertex 0.332138 1 0.510727
      vertex 1.32425 0 0.385391
    endloop
  endfacet
  facet normal 0.545371 -0.706404 0.45118
    outer loop
      vertex 7.34554 1 2.78952
      vertex 6.61658 0 2.10498
      vertex 7.67174 1 2.39522
    endloop
  endfacet
  facet normal 0.673156 -0.706411 0.218733
    outer loop
      vertex 8.16383 1 1.50011
      vertex 7.23405 0 1.13197
      vertex 8.32198 1 1.0134
    endloop
  endfacet
  facet normal 0.0887121 -0.706413 0.702219
    outer loop
      vertex 4.63086 1 4.06696
      vertex 4.56807 0 3.06892
      vertex 4.95119 0 3.02052
    endloop
  endfacet
  facet normal 0.340985 -0.706409 0.620254
    outer loop
      vertex 6.11005 1 3.68716
      vertex 6.02266 0 2.5963
      vertex 6.55849 1 3.44063
    endloop
  endfacet
  facet normal 0.176019 -0.706409 0.685568
    outer loop
      vertex 5.13857 1 4.00281
      vertex 4.95119 0 3.02052
      vertex 5.63423 1 3.87555
    endloop
  endfacet
  facet normal 0.545384 -0.706411 0.451154
    outer loop
      vertex 7.67174 1 2.39522
      vertex 6.61658 0 2.10498
      vertex 6.86272 0 1.80743
    endloop
  endfacet
  facet normal -0.597616 -0.70641 0.379263
    outer loop
      vertex 1.88728 0 1.80743
      vertex 1.07826 1 2.39522
      vertex 1.68036 0 1.48138
    endloop
  endfacet
  facet normal -0.640435 -0.706405 0.301387
    outer loop
      vertex 0.804062 1 1.96313
      vertex 0.586166 1 1.50011
      vertex 1.68036 0 1.48138
    endloop
  endfacet
  facet normal -0.260559 -0.706409 0.658099
    outer loop
      vertex 3.11577 1 3.87555
      vertex 2.63995 1 3.68716
      vertex 3.06573 0 2.78233
    endloop
  endfacet
  facet normal 0.706409 -0.706407 0.0444542
    outer loop
      vertex 8.41786 1 0.510727
      vertex 7.42575 0 0.385391
      vertex 8.45 1 0
    endloop
  endfacet
  facet normal 0.416038 -0.706409 0.572624
    outer loop
      vertex 6.55849 1 3.44063
      vertex 6.02266 0 2.5963
      vertex 6.33507 0 2.36932
    endloop
  endfacet
  facet normal -0.5878 0 0.809006
    outer loop
      vertex 1.77751 39.01 3.13983
      vertex 2.19151 1 3.44063
      vertex 2.19151 39.01 3.44063
    endloop
  endfacet
  facet normal -0.5878 0 0.809006
    outer loop
      vertex 2.19151 1 3.44063
      vertex 1.77751 39.01 3.13983
      vertex 1.77751 1 3.13983
    endloop
  endfacet
  facet normal 0.176028 -0.706411 0.685563
    outer loop
      vertex 5.63423 1 3.87555
      vertex 4.95119 0 3.02052
      vertex 5.32523 0 2.92448
    endloop
  endfacet
  facet normal 0.260553 -0.706411 0.6581
    outer loop
      vertex 5.63423 1 3.87555
      vertex 5.32523 0 2.92448
      vertex 5.68427 0 2.78233
    endloop
  endfacet
  facet normal -0.545371 -0.706404 0.45118
    outer loop
      vertex 1.40446 1 2.78952
      vertex 1.07826 1 2.39522
      vertex 2.13342 0 2.10498
    endloop
  endfacet
  facet normal -0.673158 -0.706412 0.218723
    outer loop
      vertex 0.586166 1 1.50011
      vertex 0.428024 1 1.0134
      vertex 1.51595 0 1.13197
    endloop
  endfacet
  facet normal -0.176028 -0.706411 0.685563
    outer loop
      vertex 3.79881 0 3.02052
      vertex 3.11577 1 3.87555
      vertex 3.42477 0 2.92448
    endloop
  endfacet
  facet normal -0.125355 0 0.992112
    outer loop
      vertex 3.61143 39.01 4.00281
      vertex 4.11914 1 4.06696
      vertex 4.11914 39.01 4.06696
    endloop
  endfacet
  facet normal -0.125355 0 0.992112
    outer loop
      vertex 4.11914 1 4.06696
      vertex 3.61143 39.01 4.00281
      vertex 3.61143 1 4.00281
    endloop
  endfacet
  facet normal -0.545384 -0.706411 0.451154
    outer loop
      vertex 2.13342 0 2.10498
      vertex 1.07826 1 2.39522
      vertex 1.88728 0 1.80743
    endloop
  endfacet
  facet normal 0.248683 0 0.968585
    outer loop
      vertex 5.13857 39.01 4.00281
      vertex 5.63423 1 3.87555
      vertex 5.63423 39.01 3.87555
    endloop
  endfacet
  facet normal 0.248683 0 0.968585
    outer loop
      vertex 5.63423 1 3.87555
      vertex 5.13857 39.01 4.00281
      vertex 5.13857 1 4.00281
    endloop
  endfacet
  facet normal 0.260559 -0.706409 0.658099
    outer loop
      vertex 6.11005 1 3.68716
      vertex 5.63423 1 3.87555
      vertex 5.68427 0 2.78233
    endloop
  endfacet
  facet normal -0.340985 -0.706409 0.620254
    outer loop
      vertex 3.06573 0 2.78233
      vertex 2.63995 1 3.68716
      vertex 2.72734 0 2.5963
    endloop
  endfacet
  facet normal 0.90482 -0 0.425794
    outer loop
      vertex 7.94594 1 1.96313
      vertex 8.16383 39.01 1.50011
      vertex 7.94594 39.01 1.96313
    endloop
  endfacet
  facet normal 0.90482 0 0.425794
    outer loop
      vertex 8.16383 39.01 1.50011
      vertex 7.94594 1 1.96313
      vertex 8.16383 1 1.50011
    endloop
  endfacet
  facet normal 0.998026 -0 0.0628057
    outer loop
      vertex 8.41786 1 0.510727
      vertex 8.45 39.01 0
      vertex 8.41786 39.01 0.510727
    endloop
  endfacet
  facet normal 0.998026 0 0.0628057
    outer loop
      vertex 8.45 39.01 0
      vertex 8.41786 1 0.510727
      vertex 8.45 1 0
    endloop
  endfacet
  facet normal -0.597631 -0.706405 0.379248
    outer loop
      vertex 1.07826 1 2.39522
      vertex 0.804062 1 1.96313
      vertex 1.68036 0 1.48138
    endloop
  endfacet
  facet normal 0.695257 -0.706415 0.132648
    outer loop
      vertex 8.32198 1 1.0134
      vertex 7.35338 0 0.764709
      vertex 7.42575 0 0.385391
    endloop
  endfacet
  facet normal -0.998026 0 0.0627959
    outer loop
      vertex 0.300003 1 0
      vertex 0.332138 39.01 0.510727
      vertex 0.300003 39.01 0
    endloop
  endfacet
  facet normal -0.998026 0 0.0627959
    outer loop
      vertex 0.332138 39.01 0.510727
      vertex 0.300003 1 0
      vertex 0.332138 1 0.510727
    endloop
  endfacet
  facet normal 0.844339 -0 0.535809
    outer loop
      vertex 7.67174 1 2.39522
      vertex 7.94594 39.01 1.96313
      vertex 7.67174 39.01 2.39522
    endloop
  endfacet
  facet normal 0.844339 0 0.535809
    outer loop
      vertex 7.94594 39.01 1.96313
      vertex 7.67174 1 2.39522
      vertex 7.94594 1 1.96313
    endloop
  endfacet
  facet normal 0.597616 -0.70641 0.379263
    outer loop
      vertex 7.67174 1 2.39522
      vertex 6.86272 0 1.80743
      vertex 7.06964 0 1.48138
    endloop
  endfacet
  facet normal -0.640443 -0.706413 0.301352
    outer loop
      vertex 1.68036 0 1.48138
      vertex 0.586166 1 1.50011
      vertex 1.51595 0 1.13197
    endloop
  endfacet
  facet normal -0.0887121 -0.706413 0.702219
    outer loop
      vertex 4.11914 1 4.06696
      vertex 3.79881 0 3.02052
      vertex 4.18193 0 3.06892
    endloop
  endfacet
  facet normal -0.484523 -0.706404 0.515976
    outer loop
      vertex 1.77751 1 3.13983
      vertex 1.40446 1 2.78952
      vertex 2.13342 0 2.10498
    endloop
  endfacet
  facet normal -0.484511 -0.706407 0.515982
    outer loop
      vertex 2.41493 0 2.36932
      vertex 1.77751 1 3.13983
      vertex 2.13342 0 2.10498
    endloop
  endfacet
  facet normal -0.416048 -0.706407 0.57262
    outer loop
      vertex 2.19151 1 3.44063
      vertex 1.77751 1 3.13983
      vertex 2.41493 0 2.36932
    endloop
  endfacet
  facet normal -0.416038 -0.706409 0.572624
    outer loop
      vertex 2.72734 0 2.5963
      vertex 2.19151 1 3.44063
      vertex 2.41493 0 2.36932
    endloop
  endfacet
  facet normal 0.982291 -0 0.187362
    outer loop
      vertex 8.32198 1 1.0134
      vertex 8.41786 39.01 0.510727
      vertex 8.32198 39.01 1.0134
    endloop
  endfacet
  facet normal 0.982291 0 0.187362
    outer loop
      vertex 8.41786 39.01 0.510727
      vertex 8.32198 1 1.0134
      vertex 8.41786 1 0.510727
    endloop
  endfacet
  facet normal 0.416048 -0.706407 0.57262
    outer loop
      vertex 6.55849 1 3.44063
      vertex 6.33507 0 2.36932
      vertex 6.97249 1 3.13983
    endloop
  endfacet
  facet normal 0.484511 -0.706407 0.515982
    outer loop
      vertex 6.97249 1 3.13983
      vertex 6.33507 0 2.36932
      vertex 6.61658 0 2.10498
    endloop
  endfacet
  facet normal -0.368124 0 0.929777
    outer loop
      vertex 2.63995 39.01 3.68716
      vertex 3.11577 1 3.87555
      vertex 3.11577 39.01 3.87555
    endloop
  endfacet
  facet normal -0.368124 0 0.929777
    outer loop
      vertex 3.11577 1 3.87555
      vertex 2.63995 39.01 3.68716
      vertex 2.63995 1 3.68716
    endloop
  endfacet
  facet normal -0.248683 0 0.968585
    outer loop
      vertex 3.11577 39.01 3.87555
      vertex 3.61143 1 4.00281
      vertex 3.61143 39.01 4.00281
    endloop
  endfacet
  facet normal -0.248683 0 0.968585
    outer loop
      vertex 3.61143 1 4.00281
      vertex 3.11577 39.01 3.87555
      vertex 3.11577 1 3.87555
    endloop
  endfacet
  facet normal 0.597629 -0.706406 0.379249
    outer loop
      vertex 7.67174 1 2.39522
      vertex 7.06964 0 1.48138
      vertex 7.94594 1 1.96313
    endloop
  endfacet
  facet normal -0.770507 0 0.637432
    outer loop
      vertex 1.07826 1 2.39522
      vertex 1.40446 39.01 2.78952
      vertex 1.07826 39.01 2.39522
    endloop
  endfacet
  facet normal -0.770507 0 0.637432
    outer loop
      vertex 1.40446 39.01 2.78952
      vertex 1.07826 1 2.39522
      vertex 1.40446 1 2.78952
    endloop
  endfacet
  facet normal 0.640438 -0.706406 0.30138
    outer loop
      vertex 7.94594 1 1.96313
      vertex 7.06964 0 1.48138
      vertex 8.16383 1 1.50011
    endloop
  endfacet
  facet normal 0.640444 -0.706412 0.301352
    outer loop
      vertex 8.16383 1 1.50011
      vertex 7.06964 0 1.48138
      vertex 7.23405 0 1.13197
    endloop
  endfacet
  facet normal -0.982289 0 0.187374
    outer loop
      vertex 0.332138 1 0.510727
      vertex 0.428024 39.01 1.0134
      vertex 0.332138 39.01 0.510727
    endloop
  endfacet
  facet normal -0.982289 0 0.187374
    outer loop
      vertex 0.428024 39.01 1.0134
      vertex 0.332138 1 0.510727
      vertex 0.428024 1 1.0134
    endloop
  endfacet
  facet normal -0.176019 -0.706409 0.685568
    outer loop
      vertex 3.61143 1 4.00281
      vertex 3.11577 1 3.87555
      vertex 3.79881 0 3.02052
    endloop
  endfacet
  facet normal -0.0887267 -0.706409 0.70222
    outer loop
      vertex 4.11914 1 4.06696
      vertex 3.61143 1 4.00281
      vertex 3.79881 0 3.02052
    endloop
  endfacet
  facet normal -0.844341 0 0.535806
    outer loop
      vertex 0.804062 1 1.96313
      vertex 1.07826 39.01 2.39522
      vertex 0.804062 39.01 1.96313
    endloop
  endfacet
  facet normal -0.844341 0 0.535806
    outer loop
      vertex 1.07826 39.01 2.39522
      vertex 0.804062 1 1.96313
      vertex 1.07826 1 2.39522
    endloop
  endfacet
  facet normal -0.706409 -0.706407 0.0444494
    outer loop
      vertex 1.32425 0 0.385391
      vertex 0.300003 1 0
      vertex 1.3 0 0
    endloop
  endfacet
  facet normal -0.695259 -0.706413 0.132648
    outer loop
      vertex 1.39662 0 0.764709
      vertex 0.428024 1 1.0134
      vertex 1.32425 0 0.385391
    endloop
  endfacet
  facet normal -0.68454 0 0.728976
    outer loop
      vertex 1.40446 39.01 2.78952
      vertex 1.77751 1 3.13983
      vertex 1.77751 39.01 3.13983
    endloop
  endfacet
  facet normal -0.68454 0 0.728976
    outer loop
      vertex 1.77751 1 3.13983
      vertex 1.40446 39.01 2.78952
      vertex 1.40446 1 2.78952
    endloop
  endfacet
  facet normal -0.481751 0 0.876308
    outer loop
      vertex 2.19151 39.01 3.44063
      vertex 2.63995 1 3.68716
      vertex 2.63995 39.01 3.68716
    endloop
  endfacet
  facet normal -0.481751 0 0.876308
    outer loop
      vertex 2.63995 1 3.68716
      vertex 2.19151 39.01 3.44063
      vertex 2.19151 1 3.44063
    endloop
  endfacet
  facet normal 0 -1 0
    outer loop
      vertex 3.79881 0 3.02052
      vertex 4.56807 0 3.06892
      vertex 4.18193 0 3.06892
    endloop
  endfacet
  facet normal 0 -1 0
    outer loop
      vertex 3.79881 0 3.02052
      vertex 4.95119 0 3.02052
      vertex 4.56807 0 3.06892
    endloop
  endfacet
  facet normal 0 -1 0
    outer loop
      vertex 3.42477 0 2.92448
      vertex 4.95119 0 3.02052
      vertex 3.79881 0 3.02052
    endloop
  endfacet
  facet normal 0 -1 0
    outer loop
      vertex 3.42477 0 2.92448
      vertex 5.32523 0 2.92448
      vertex 4.95119 0 3.02052
    endloop
  endfacet
  facet normal 0 -1 0
    outer loop
      vertex 3.06573 0 2.78233
      vertex 5.32523 0 2.92448
      vertex 3.42477 0 2.92448
    endloop
  endfacet
  facet normal 0 -1 0
    outer loop
      vertex 3.06573 0 2.78233
      vertex 5.68427 0 2.78233
      vertex 5.32523 0 2.92448
    endloop
  endfacet
  facet normal 0 -1 0
    outer loop
      vertex 2.72734 0 2.5963
      vertex 5.68427 0 2.78233
      vertex 3.06573 0 2.78233
    endloop
  endfacet
  facet normal 0 -1 0
    outer loop
      vertex 2.72734 0 2.5963
      vertex 6.02266 0 2.5963
      vertex 5.68427 0 2.78233
    endloop
  endfacet
  facet normal 0 -1 0
    outer loop
      vertex 2.41493 0 2.36932
      vertex 6.02266 0 2.5963
      vertex 2.72734 0 2.5963
    endloop
  endfacet
  facet normal 0 -1 0
    outer loop
      vertex 2.41493 0 2.36932
      vertex 6.33507 0 2.36932
      vertex 6.02266 0 2.5963
    endloop
  endfacet
  facet normal 0 -1 0
    outer loop
      vertex 2.13342 0 2.10498
      vertex 6.33507 0 2.36932
      vertex 2.41493 0 2.36932
    endloop
  endfacet
  facet normal 0 -1 0
    outer loop
      vertex 2.13342 0 2.10498
      vertex 6.61658 0 2.10498
      vertex 6.33507 0 2.36932
    endloop
  endfacet
  facet normal 0 -1 0
    outer loop
      vertex 1.88728 0 1.80743
      vertex 6.61658 0 2.10498
      vertex 2.13342 0 2.10498
    endloop
  endfacet
  facet normal 0 -1 0
    outer loop
      vertex 1.88728 0 1.80743
      vertex 6.86272 0 1.80743
      vertex 6.61658 0 2.10498
    endloop
  endfacet
  facet normal 0 -1 0
    outer loop
      vertex 1.68036 0 1.48138
      vertex 6.86272 0 1.80743
      vertex 1.88728 0 1.80743
    endloop
  endfacet
  facet normal 0 -1 0
    outer loop
      vertex 1.68036 0 1.48138
      vertex 7.06964 0 1.48138
      vertex 6.86272 0 1.80743
    endloop
  endfacet
  facet normal 0 -1 0
    outer loop
      vertex 1.51595 0 1.13197
      vertex 7.06964 0 1.48138
      vertex 1.68036 0 1.48138
    endloop
  endfacet
  facet normal 0 -1 0
    outer loop
      vertex 1.51595 0 1.13197
      vertex 7.23405 0 1.13197
      vertex 7.06964 0 1.48138
    endloop
  endfacet
  facet normal 0 -1 0
    outer loop
      vertex 1.39662 0 0.764709
      vertex 7.23405 0 1.13197
      vertex 1.51595 0 1.13197
    endloop
  endfacet
  facet normal 0 -1 0
    outer loop
      vertex 1.39662 0 0.764709
      vertex 7.35338 0 0.764709
      vertex 7.23405 0 1.13197
    endloop
  endfacet
  facet normal 0 -1 0
    outer loop
      vertex 1.32425 0 0.385391
      vertex 7.35338 0 0.764709
      vertex 1.39662 0 0.764709
    endloop
  endfacet
  facet normal 0 -1 0
    outer loop
      vertex 1.32425 0 0.385391
      vertex 7.42575 0 0.385391
      vertex 7.35338 0 0.764709
    endloop
  endfacet
  facet normal 0 -1 0
    outer loop
      vertex 1.3 0 0
      vertex 7.42575 0 0.385391
      vertex 1.32425 0 0.385391
    endloop
  endfacet
  facet normal 0 -1 -0
    outer loop
      vertex 7.42575 0 0.385391
      vertex 1.3 0 0
      vertex 7.45 0 0
    endloop
  endfacet
  facet normal -0.673158 0.706412 0.218723
    outer loop
      vertex 1.51595 40.01 1.13197
      vertex 0.428024 39.01 1.0134
      vertex 0.586166 39.01 1.50011
    endloop
  endfacet
  facet normal -0.484511 0.706407 0.515982
    outer loop
      vertex 2.13342 40.01 2.10498
      vertex 1.77751 39.01 3.13983
      vertex 2.41493 40.01 2.36932
    endloop
  endfacet
  facet normal -0.597616 0.70641 0.379263
    outer loop
      vertex 1.68036 40.01 1.48138
      vertex 1.07826 39.01 2.39522
      vertex 1.88728 40.01 1.80743
    endloop
  endfacet
  facet normal -0.545371 0.706404 0.45118
    outer loop
      vertex 2.13342 40.01 2.10498
      vertex 1.07826 39.01 2.39522
      vertex 1.40446 39.01 2.78952
    endloop
  endfacet
  facet normal -0.416038 0.706409 0.572624
    outer loop
      vertex 2.41493 40.01 2.36932
      vertex 2.19151 39.01 3.44063
      vertex 2.72734 40.01 2.5963
    endloop
  endfacet
  facet normal 0.545384 0.706411 0.451154
    outer loop
      vertex 6.86272 40.01 1.80743
      vertex 6.61658 40.01 2.10498
      vertex 7.67174 39.01 2.39522
    endloop
  endfacet
  facet normal -0.706409 0.706407 0.0444494
    outer loop
      vertex 1.3 40.01 0
      vertex 0.300003 39.01 0
      vertex 1.32425 40.01 0.385391
    endloop
  endfacet
  facet normal 0.484523 0.706404 0.515976
    outer loop
      vertex 7.34554 39.01 2.78952
      vertex 6.61658 40.01 2.10498
      vertex 6.97249 39.01 3.13983
    endloop
  endfacet
  facet normal 0.640438 0.706406 0.30138
    outer loop
      vertex 8.16383 39.01 1.50011
      vertex 7.06964 40.01 1.48138
      vertex 7.94594 39.01 1.96313
    endloop
  endfacet
  facet normal 0.340985 0.706409 0.620254
    outer loop
      vertex 6.55849 39.01 3.44063
      vertex 6.02266 40.01 2.5963
      vertex 6.11005 39.01 3.68716
    endloop
  endfacet
  facet normal 0.695271 0.706407 0.132616
    outer loop
      vertex 8.41786 39.01 0.510727
      vertex 7.42575 40.01 0.385391
      vertex 8.32198 39.01 1.0134
    endloop
  endfacet
  facet normal 0.416048 0.706407 0.57262
    outer loop
      vertex 6.97249 39.01 3.13983
      vertex 6.33507 40.01 2.36932
      vertex 6.55849 39.01 3.44063
    endloop
  endfacet
  facet normal -0.340985 0.706409 0.620254
    outer loop
      vertex 2.72734 40.01 2.5963
      vertex 2.19151 39.01 3.44063
      vertex 2.63995 39.01 3.68716
    endloop
  endfacet
  facet normal -0.695269 0.706408 0.132624
    outer loop
      vertex 1.32425 40.01 0.385391
      vertex 0.332138 39.01 0.510727
      vertex 0.428024 39.01 1.0134
    endloop
  endfacet
  facet normal -0.0887267 0.706409 0.70222
    outer loop
      vertex 3.79881 40.01 3.02052
      vertex 3.61143 39.01 4.00281
      vertex 4.11914 39.01 4.06696
    endloop
  endfacet
  facet normal -0.176019 0.706409 0.685568
    outer loop
      vertex 3.79881 40.01 3.02052
      vertex 3.11577 39.01 3.87555
      vertex 3.61143 39.01 4.00281
    endloop
  endfacet
  facet normal -0.695259 0.706413 0.132648
    outer loop
      vertex 1.32425 40.01 0.385391
      vertex 0.428024 39.01 1.0134
      vertex 1.39662 40.01 0.764709
    endloop
  endfacet
  facet normal -0.673158 0.706413 0.218722
    outer loop
      vertex 1.39662 40.01 0.764709
      vertex 0.428024 39.01 1.0134
      vertex 1.51595 40.01 1.13197
    endloop
  endfacet
  facet normal -0.545384 0.706411 0.451154
    outer loop
      vertex 1.88728 40.01 1.80743
      vertex 1.07826 39.01 2.39522
      vertex 2.13342 40.01 2.10498
    endloop
  endfacet
  facet normal 0.545371 0.706404 0.45118
    outer loop
      vertex 7.67174 39.01 2.39522
      vertex 6.61658 40.01 2.10498
      vertex 7.34554 39.01 2.78952
    endloop
  endfacet
  facet normal 0.706408 0.706408 0.0444494
    outer loop
      vertex 7.45 40.01 0
      vertex 7.42575 40.01 0.385391
      vertex 8.45 39.01 0
    endloop
  endfacet
  facet normal -0.340985 0.706409 0.620254
    outer loop
      vertex 2.72734 40.01 2.5963
      vertex 2.63995 39.01 3.68716
      vertex 3.06573 40.01 2.78233
    endloop
  endfacet
  facet normal -0.706409 0.706407 0.0444473
    outer loop
      vertex 1.32425 40.01 0.385391
      vertex 0.300003 39.01 0
      vertex 0.332138 39.01 0.510727
    endloop
  endfacet
  facet normal -0.0887121 0.706413 0.702219
    outer loop
      vertex 4.18193 40.01 3.06892
      vertex 3.79881 40.01 3.02052
      vertex 4.11914 39.01 4.06696
    endloop
  endfacet
  facet normal 0.597629 0.706406 0.379249
    outer loop
      vertex 7.94594 39.01 1.96313
      vertex 7.06964 40.01 1.48138
      vertex 7.67174 39.01 2.39522
    endloop
  endfacet
  facet normal 0.597616 0.70641 0.379263
    outer loop
      vertex 7.06964 40.01 1.48138
      vertex 6.86272 40.01 1.80743
      vertex 7.67174 39.01 2.39522
    endloop
  endfacet
  facet normal 0.0887121 0.706413 0.702219
    outer loop
      vertex 4.95119 40.01 3.02052
      vertex 4.56807 40.01 3.06892
      vertex 4.63086 39.01 4.06696
    endloop
  endfacet
  facet normal 0.640444 0.706412 0.301352
    outer loop
      vertex 7.23405 40.01 1.13197
      vertex 7.06964 40.01 1.48138
      vertex 8.16383 39.01 1.50011
    endloop
  endfacet
  facet normal 0.706409 0.706407 0.0444542
    outer loop
      vertex 8.45 39.01 0
      vertex 7.42575 40.01 0.385391
      vertex 8.41786 39.01 0.510727
    endloop
  endfacet
  facet normal -0.484523 0.706404 0.515976
    outer loop
      vertex 2.13342 40.01 2.10498
      vertex 1.40446 39.01 2.78952
      vertex 1.77751 39.01 3.13983
    endloop
  endfacet
  facet normal 0.340985 0.706409 0.620254
    outer loop
      vertex 6.02266 40.01 2.5963
      vertex 5.68427 40.01 2.78233
      vertex 6.11005 39.01 3.68716
    endloop
  endfacet
  facet normal 0.176019 0.706409 0.685568
    outer loop
      vertex 5.63423 39.01 3.87555
      vertex 4.95119 40.01 3.02052
      vertex 5.13857 39.01 4.00281
    endloop
  endfacet
  facet normal -0.416048 0.706407 0.57262
    outer loop
      vertex 2.41493 40.01 2.36932
      vertex 1.77751 39.01 3.13983
      vertex 2.19151 39.01 3.44063
    endloop
  endfacet
  facet normal -0.640443 0.706413 0.301352
    outer loop
      vertex 1.51595 40.01 1.13197
      vertex 0.586166 39.01 1.50011
      vertex 1.68036 40.01 1.48138
    endloop
  endfacet
  facet normal 0.176028 0.706411 0.685563
    outer loop
      vertex 5.32523 40.01 2.92448
      vertex 4.95119 40.01 3.02052
      vertex 5.63423 39.01 3.87555
    endloop
  endfacet
  facet normal 0.260559 0.706409 0.658099
    outer loop
      vertex 5.68427 40.01 2.78233
      vertex 5.63423 39.01 3.87555
      vertex 6.11005 39.01 3.68716
    endloop
  endfacet
  facet normal 0 1 0
    outer loop
      vertex 4.95119 40.01 3.02052
      vertex 4.18193 40.01 3.06892
      vertex 4.56807 40.01 3.06892
    endloop
  endfacet
  facet normal 0 1 0
    outer loop
      vertex 4.95119 40.01 3.02052
      vertex 3.79881 40.01 3.02052
      vertex 4.18193 40.01 3.06892
    endloop
  endfacet
  facet normal 0 1 0
    outer loop
      vertex 5.32523 40.01 2.92448
      vertex 3.79881 40.01 3.02052
      vertex 4.95119 40.01 3.02052
    endloop
  endfacet
  facet normal 0 1 0
    outer loop
      vertex 5.32523 40.01 2.92448
      vertex 3.42477 40.01 2.92448
      vertex 3.79881 40.01 3.02052
    endloop
  endfacet
  facet normal 0 1 0
    outer loop
      vertex 5.68427 40.01 2.78233
      vertex 3.42477 40.01 2.92448
      vertex 5.32523 40.01 2.92448
    endloop
  endfacet
  facet normal 0 1 0
    outer loop
      vertex 5.68427 40.01 2.78233
      vertex 3.06573 40.01 2.78233
      vertex 3.42477 40.01 2.92448
    endloop
  endfacet
  facet normal 0 1 0
    outer loop
      vertex 6.02266 40.01 2.5963
      vertex 3.06573 40.01 2.78233
      vertex 5.68427 40.01 2.78233
    endloop
  endfacet
  facet normal 0 1 0
    outer loop
      vertex 6.02266 40.01 2.5963
      vertex 2.72734 40.01 2.5963
      vertex 3.06573 40.01 2.78233
    endloop
  endfacet
  facet normal 0 1 0
    outer loop
      vertex 6.33507 40.01 2.36932
      vertex 2.72734 40.01 2.5963
      vertex 6.02266 40.01 2.5963
    endloop
  endfacet
  facet normal 0 1 0
    outer loop
      vertex 6.33507 40.01 2.36932
      vertex 2.41493 40.01 2.36932
      vertex 2.72734 40.01 2.5963
    endloop
  endfacet
  facet normal 0 1 0
    outer loop
      vertex 6.61658 40.01 2.10498
      vertex 2.41493 40.01 2.36932
      vertex 6.33507 40.01 2.36932
    endloop
  endfacet
  facet normal 0 1 0
    outer loop
      vertex 6.61658 40.01 2.10498
      vertex 2.13342 40.01 2.10498
      vertex 2.41493 40.01 2.36932
    endloop
  endfacet
  facet normal 0 1 0
    outer loop
      vertex 6.86272 40.01 1.80743
      vertex 2.13342 40.01 2.10498
      vertex 6.61658 40.01 2.10498
    endloop
  endfacet
  facet normal 0 1 0
    outer loop
      vertex 6.86272 40.01 1.80743
      vertex 1.88728 40.01 1.80743
      vertex 2.13342 40.01 2.10498
    endloop
  endfacet
  facet normal 0 1 0
    outer loop
      vertex 7.06964 40.01 1.48138
      vertex 1.88728 40.01 1.80743
      vertex 6.86272 40.01 1.80743
    endloop
  endfacet
  facet normal 0 1 0
    outer loop
      vertex 7.06964 40.01 1.48138
      vertex 1.68036 40.01 1.48138
      vertex 1.88728 40.01 1.80743
    endloop
  endfacet
  facet normal 0 1 0
    outer loop
      vertex 7.23405 40.01 1.13197
      vertex 1.68036 40.01 1.48138
      vertex 7.06964 40.01 1.48138
    endloop
  endfacet
  facet normal 0 1 0
    outer loop
      vertex 7.23405 40.01 1.13197
      vertex 1.51595 40.01 1.13197
      vertex 1.68036 40.01 1.48138
    endloop
  endfacet
  facet normal 0 1 0
    outer loop
      vertex 7.35338 40.01 0.764709
      vertex 1.51595 40.01 1.13197
      vertex 7.23405 40.01 1.13197
    endloop
  endfacet
  facet normal 0 1 0
    outer loop
      vertex 7.35338 40.01 0.764709
      vertex 1.39662 40.01 0.764709
      vertex 1.51595 40.01 1.13197
    endloop
  endfacet
  facet normal 0 1 0
    outer loop
      vertex 7.42575 40.01 0.385391
      vertex 1.39662 40.01 0.764709
      vertex 7.35338 40.01 0.764709
    endloop
  endfacet
  facet normal 0 1 0
    outer loop
      vertex 7.42575 40.01 0.385391
      vertex 1.32425 40.01 0.385391
      vertex 1.39662 40.01 0.764709
    endloop
  endfacet
  facet normal 0 1 0
    outer loop
      vertex 7.45 40.01 0
      vertex 1.32425 40.01 0.385391
      vertex 7.42575 40.01 0.385391
    endloop
  endfacet
  facet normal 0 1 0
    outer loop
      vertex 1.32425 40.01 0.385391
      vertex 7.45 40.01 0
      vertex 1.3 40.01 0
    endloop
  endfacet
  facet normal 0.673156 0.706411 0.218733
    outer loop
      vertex 8.32198 39.01 1.0134
      vertex 7.23405 40.01 1.13197
      vertex 8.16383 39.01 1.50011
    endloop
  endfacet
  facet normal 0.416038 0.706409 0.572624
    outer loop
      vertex 6.33507 40.01 2.36932
      vertex 6.02266 40.01 2.5963
      vertex 6.55849 39.01 3.44063
    endloop
  endfacet
  facet normal 0.484511 0.706407 0.515982
    outer loop
      vertex 6.61658 40.01 2.10498
      vertex 6.33507 40.01 2.36932
      vertex 6.97249 39.01 3.13983
    endloop
  endfacet
  facet normal -0.176028 0.706411 0.685563
    outer loop
      vertex 3.42477 40.01 2.92448
      vertex 3.11577 39.01 3.87555
      vertex 3.79881 40.01 3.02052
    endloop
  endfacet
  facet normal -0.260553 0.706411 0.6581
    outer loop
      vertex 3.42477 40.01 2.92448
      vertex 3.06573 40.01 2.78233
      vertex 3.11577 39.01 3.87555
    endloop
  endfacet
  facet normal 0.673157 0.706414 0.218721
    outer loop
      vertex 7.35338 40.01 0.764709
      vertex 7.23405 40.01 1.13197
      vertex 8.32198 39.01 1.0134
    endloop
  endfacet
  facet normal -0.260559 0.706409 0.658099
    outer loop
      vertex 3.06573 40.01 2.78233
      vertex 2.63995 39.01 3.68716
      vertex 3.11577 39.01 3.87555
    endloop
  endfacet
  facet normal 0.0887267 0.706409 0.70222
    outer loop
      vertex 4.95119 40.01 3.02052
      vertex 4.63086 39.01 4.06696
      vertex 5.13857 39.01 4.00281
    endloop
  endfacet
  facet normal -0.597631 0.706405 0.379248
    outer loop
      vertex 1.68036 40.01 1.48138
      vertex 0.804062 39.01 1.96313
      vertex 1.07826 39.01 2.39522
    endloop
  endfacet
  facet normal 0.695257 0.706415 0.132648
    outer loop
      vertex 7.42575 40.01 0.385391
      vertex 7.35338 40.01 0.764709
      vertex 8.32198 39.01 1.0134
    endloop
  endfacet
  facet normal -0.640435 0.706405 0.301387
    outer loop
      vertex 1.68036 40.01 1.48138
      vertex 0.586166 39.01 1.50011
      vertex 0.804062 39.01 1.96313
    endloop
  endfacet
  facet normal 0.260553 0.706411 0.6581
    outer loop
      vertex 5.68427 40.01 2.78233
      vertex 5.32523 40.01 2.92448
      vertex 5.63423 39.01 3.87555
    endloop
  endfacet
  facet normal -0 0.706413 0.7078
    outer loop
      vertex 4.18193 40.01 3.06892
      vertex 4.63086 39.01 4.06696
      vertex 4.56807 40.01 3.06892
    endloop
  endfacet
  facet normal 0 0.706413 0.7078
    outer loop
      vertex 4.63086 39.01 4.06696
      vertex 4.18193 40.01 3.06892
      vertex 4.11914 39.01 4.06696
    endloop
  endfacet
  facet normal 1 -0 0
    outer loop
      vertex 0.299999 3.33636 0.2
      vertex 0.299999 3.93636 0
      vertex 0.299999 3.93636 0.2
    endloop
  endfacet
  facet normal 1 0 0
    outer loop
      vertex 0.299999 3.93636 0
      vertex 0.299999 3.33636 0.2
      vertex 0.299999 3.33636 0
    endloop
  endfacet
  facet normal -0 0 1
    outer loop
      vertex -0.299999 3.93636 0.2
      vertex 0.299999 3.33636 0.2
      vertex 0.299999 3.93636 0.2
    endloop
  endfacet
  facet normal 0 0 1
    outer loop
      vertex 0.299999 3.33636 0.2
      vertex -0.299999 3.93636 0.2
      vertex -0.299999 3.33636 0.2
    endloop
  endfacet
  facet normal 0 0 -1
    outer loop
      vertex -0.299999 3.33636 0
      vertex 0.299999 3.93636 0
      vertex 0.299999 3.33636 0
    endloop
  endfacet
  facet normal -0 0 -1
    outer loop
      vertex 0.299999 3.93636 0
      vertex -0.299999 3.33636 0
      vertex -0.299999 3.93636 0
    endloop
  endfacet
  facet normal -1 0 0
    outer loop
      vertex -0.299999 3.33636 0
      vertex -0.299999 3.93636 0.2
      vertex -0.299999 3.93636 0
    endloop
  endfacet
  facet normal -1 -0 0
    outer loop
      vertex -0.299999 3.93636 0.2
      vertex -0.299999 3.33636 0
      vertex -0.299999 3.33636 0.2
    endloop
  endfacet
  facet normal 0 1 -0
    outer loop
      vertex 0.299999 3.93636 0
      vertex -0.299999 3.93636 0.2
      vertex 0.299999 3.93636 0.2
    endloop
  endfacet
  facet normal 0 1 0
    outer loop
      vertex -0.299999 3.93636 0.2
      vertex 0.299999 3.93636 0
      vertex -0.299999 3.93636 0
    endloop
  endfacet
  facet normal 0 -1 0
    outer loop
      vertex -0.299999 3.33636 0
      vertex 0.299999 3.33636 0.2
      vertex -0.299999 3.33636 0.2
    endloop
  endfacet
  facet normal 0 -1 -0
    outer loop
      vertex 0.299999 3.33636 0.2
      vertex -0.299999 3.33636 0
      vertex 0.299999 3.33636 0
    endloop
  endfacet
  facet normal 1 -0 0
    outer loop
      vertex 0.299999 6.97273 0.2
      vertex 0.299999 7.57273 0
      vertex 0.299999 7.57273 0.2
    endloop
  endfacet
  facet normal 1 0 0
    outer loop
      vertex 0.299999 7.57273 0
      vertex 0.299999 6.97273 0.2
      vertex 0.299999 6.97273 0
    endloop
  endfacet
  facet normal -0 0 1
    outer loop
      vertex -0.299999 7.57273 0.2
      vertex 0.299999 6.97273 0.2
      vertex 0.299999 7.57273 0.2
    endloop
  endfacet
  facet normal 0 0 1
    outer loop
      vertex 0.299999 6.97273 0.2
      vertex -0.299999 7.57273 0.2
      vertex -0.299999 6.97273 0.2
    endloop
  endfacet
  facet normal 0 0 -1
    outer loop
      vertex -0.299999 6.97273 0
      vertex 0.299999 7.57273 0
      vertex 0.299999 6.97273 0
    endloop
  endfacet
  facet normal -0 0 -1
    outer loop
      vertex 0.299999 7.57273 0
      vertex -0.299999 6.97273 0
      vertex -0.299999 7.57273 0
    endloop
  endfacet
  facet normal -1 0 0
    outer loop
      vertex -0.299999 6.97273 0
      vertex -0.299999 7.57273 0.2
      vertex -0.299999 7.57273 0
    endloop
  endfacet
  facet normal -1 -0 0
    outer loop
      vertex -0.299999 7.57273 0.2
      vertex -0.299999 6.97273 0
      vertex -0.299999 6.97273 0.2
    endloop
  endfacet
  facet normal 0 1 -0
    outer loop
      vertex 0.299999 7.57273 0
      vertex -0.299999 7.57273 0.2
      vertex 0.299999 7.57273 0.2
    endloop
  endfacet
  facet normal 0 1 0
    outer loop
      vertex -0.299999 7.57273 0.2
      vertex 0.299999 7.57273 0
      vertex -0.299999 7.57273 0
    endloop
  endfacet
  facet normal 0 -1 0
    outer loop
      vertex -0.299999 6.97273 0
      vertex 0.299999 6.97273 0.2
      vertex -0.299999 6.97273 0.2
    endloop
  endfacet
  facet normal 0 -1 -0
    outer loop
      vertex 0.299999 6.97273 0.2
      vertex -0.299999 6.97273 0
      vertex 0.299999 6.97273 0
    endloop
  endfacet
  facet normal 1 -0 0
    outer loop
      vertex 0.299999 10.6091 0.2
      vertex 0.299999 11.2091 0
      vertex 0.299999 11.2091 0.2
    endloop
  endfacet
  facet normal 1 0 0
    outer loop
      vertex 0.299999 11.2091 0
      vertex 0.299999 10.6091 0.2
      vertex 0.299999 10.6091 0
    endloop
  endfacet
  facet normal -0 0 1
    outer loop
      vertex -0.299999 11.2091 0.2
      vertex 0.299999 10.6091 0.2
      vertex 0.299999 11.2091 0.2
    endloop
  endfacet
  facet normal 0 0 1
    outer loop
      vertex 0.299999 10.6091 0.2
      vertex -0.299999 11.2091 0.2
      vertex -0.299999 10.6091 0.2
    endloop
  endfacet
  facet normal 0 0 -1
    outer loop
      vertex -0.299999 10.6091 0
      vertex 0.299999 11.2091 0
      vertex 0.299999 10.6091 0
    endloop
  endfacet
  facet normal -0 0 -1
    outer loop
      vertex 0.299999 11.2091 0
      vertex -0.299999 10.6091 0
      vertex -0.299999 11.2091 0
    endloop
  endfacet
  facet normal -1 0 0
    outer loop
      vertex -0.299999 10.6091 0
      vertex -0.299999 11.2091 0.2
      vertex -0.299999 11.2091 0
    endloop
  endfacet
  facet normal -1 -0 0
    outer loop
      vertex -0.299999 11.2091 0.2
      vertex -0.299999 10.6091 0
      vertex -0.299999 10.6091 0.2
    endloop
  endfacet
  facet normal 0 1 -0
    outer loop
      vertex 0.299999 11.2091 0
      vertex -0.299999 11.2091 0.2
      vertex 0.299999 11.2091 0.2
    endloop
  endfacet
  facet normal 0 1 0
    outer loop
      vertex -0.299999 11.2091 0.2
      vertex 0.299999 11.2091 0
      vertex -0.299999 11.2091 0
    endloop
  endfacet
  facet normal 0 -1 0
    outer loop
      vertex -0.299999 10.6091 0
      vertex 0.299999 10.6091 0.2
      vertex -0.299999 10.6091 0.2
    endloop
  endfacet
  facet normal 0 -1 -0
    outer loop
      vertex 0.299999 10.6091 0.2
      vertex -0.299999 10.6091 0
      vertex 0.299999 10.6091 0
    endloop
  endfacet
  facet normal 1 -0 0
    outer loop
      vertex 0.299999 14.2455 0.2
      vertex 0.299999 14.8455 0
      vertex 0.299999 14.8455 0.2
    endloop
  endfacet
  facet normal 1 0 0
    outer loop
      vertex 0.299999 14.8455 0
      vertex 0.299999 14.2455 0.2
      vertex 0.299999 14.2455 0
    endloop
  endfacet
  facet normal -0 0 1
    outer loop
      vertex -0.299999 14.8455 0.2
      vertex 0.299999 14.2455 0.2
      vertex 0.299999 14.8455 0.2
    endloop
  endfacet
  facet normal 0 0 1
    outer loop
      vertex 0.299999 14.2455 0.2
      vertex -0.299999 14.8455 0.2
      vertex -0.299999 14.2455 0.2
    endloop
  endfacet
  facet normal 0 0 -1
    outer loop
      vertex -0.299999 14.2455 0
      vertex 0.299999 14.8455 0
      vertex 0.299999 14.2455 0
    endloop
  endfacet
  facet normal -0 0 -1
    outer loop
      vertex 0.299999 14.8455 0
      vertex -0.299999 14.2455 0
      vertex -0.299999 14.8455 0
    endloop
  endfacet
  facet normal -1 0 0
    outer loop
      vertex -0.299999 14.2455 0
      vertex -0.299999 14.8455 0.2
      vertex -0.299999 14.8455 0
    endloop
  endfacet
  facet normal -1 -0 0
    outer loop
      vertex -0.299999 14.8455 0.2
      vertex -0.299999 14.2455 0
      vertex -0.299999 14.2455 0.2
    endloop
  endfacet
  facet normal 0 1 -0
    outer loop
      vertex 0.299999 14.8455 0
      vertex -0.299999 14.8455 0.2
      vertex 0.299999 14.8455 0.2
    endloop
  endfacet
  facet normal 0 1 0
    outer loop
      vertex -0.299999 14.8455 0.2
      vertex 0.299999 14.8455 0
      vertex -0.299999 14.8455 0
    endloop
  endfacet
  facet normal 0 -1 0
    outer loop
      vertex -0.299999 14.2455 0
      vertex 0.299999 14.2455 0.2
      vertex -0.299999 14.2455 0.2
    endloop
  endfacet
  facet normal 0 -1 -0
    outer loop
      vertex 0.299999 14.2455 0.2
      vertex -0.299999 14.2455 0
      vertex 0.299999 14.2455 0
    endloop
  endfacet
  facet normal 1 -0 0
    outer loop
      vertex 0.299999 17.8818 0.2
      vertex 0.299999 18.4818 0
      vertex 0.299999 18.4818 0.2
    endloop
  endfacet
  facet normal 1 0 0
    outer loop
      vertex 0.299999 18.4818 0
      vertex 0.299999 17.8818 0.2
      vertex 0.299999 17.8818 0
    endloop
  endfacet
  facet normal -0 0 1
    outer loop
      vertex -0.299999 18.4818 0.2
      vertex 0.299999 17.8818 0.2
      vertex 0.299999 18.4818 0.2
    endloop
  endfacet
  facet normal 0 0 1
    outer loop
      vertex 0.299999 17.8818 0.2
      vertex -0.299999 18.4818 0.2
      vertex -0.299999 17.8818 0.2
    endloop
  endfacet
  facet normal 0 0 -1
    outer loop
      vertex -0.299999 17.8818 0
      vertex 0.299999 18.4818 0
      vertex 0.299999 17.8818 0
    endloop
  endfacet
  facet normal -0 0 -1
    outer loop
      vertex 0.299999 18.4818 0
      vertex -0.299999 17.8818 0
      vertex -0.299999 18.4818 0
    endloop
  endfacet
  facet normal -1 0 0
    outer loop
      vertex -0.299999 17.8818 0
      vertex -0.299999 18.4818 0.2
      vertex -0.299999 18.4818 0
    endloop
  endfacet
  facet normal -1 -0 0
    outer loop
      vertex -0.299999 18.4818 0.2
      vertex -0.299999 17.8818 0
      vertex -0.299999 17.8818 0.2
    endloop
  endfacet
  facet normal 0 1 -0
    outer loop
      vertex 0.299999 18.4818 0
      vertex -0.299999 18.4818 0.2
      vertex 0.299999 18.4818 0.2
    endloop
  endfacet
  facet normal 0 1 0
    outer loop
      vertex -0.299999 18.4818 0.2
      vertex 0.299999 18.4818 0
      vertex -0.299999 18.4818 0
    endloop
  endfacet
  facet normal 0 -1 0
    outer loop
      vertex -0.299999 17.8818 0
      vertex 0.299999 17.8818 0.2
      vertex -0.299999 17.8818 0.2
    endloop
  endfacet
  facet normal 0 -1 -0
    outer loop
      vertex 0.299999 17.8818 0.2
      vertex -0.299999 17.8818 0
      vertex 0.299999 17.8818 0
    endloop
  endfacet
  facet normal 1 -0 0
    outer loop
      vertex 0.299999 21.5182 0.2
      vertex 0.299999 22.1182 0
      vertex 0.299999 22.1182 0.2
    endloop
  endfacet
  facet normal 1 0 0
    outer loop
      vertex 0.299999 22.1182 0
      vertex 0.299999 21.5182 0.2
      vertex 0.299999 21.5182 0
    endloop
  endfacet
  facet normal -0 0 1
    outer loop
      vertex -0.299999 22.1182 0.2
      vertex 0.299999 21.5182 0.2
      vertex 0.299999 22.1182 0.2
    endloop
  endfacet
  facet normal 0 0 1
    outer loop
      vertex 0.299999 21.5182 0.2
      vertex -0.299999 22.1182 0.2
      vertex -0.299999 21.5182 0.2
    endloop
  endfacet
  facet normal 0 0 -1
    outer loop
      vertex -0.299999 21.5182 0
      vertex 0.299999 22.1182 0
      vertex 0.299999 21.5182 0
    endloop
  endfacet
  facet normal -0 0 -1
    outer loop
      vertex 0.299999 22.1182 0
      vertex -0.299999 21.5182 0
      vertex -0.299999 22.1182 0
    endloop
  endfacet
  facet normal -1 0 0
    outer loop
      vertex -0.299999 21.5182 0
      vertex -0.299999 22.1182 0.2
      vertex -0.299999 22.1182 0
    endloop
  endfacet
  facet normal -1 -0 0
    outer loop
      vertex -0.299999 22.1182 0.2
      vertex -0.299999 21.5182 0
      vertex -0.299999 21.5182 0.2
    endloop
  endfacet
  facet normal 0 1 -0
    outer loop
      vertex 0.299999 22.1182 0
      vertex -0.299999 22.1182 0.2
      vertex 0.299999 22.1182 0.2
    endloop
  endfacet
  facet normal 0 1 0
    outer loop
      vertex -0.299999 22.1182 0.2
      vertex 0.299999 22.1182 0
      vertex -0.299999 22.1182 0
    endloop
  endfacet
  facet normal 0 -1 0
    outer loop
      vertex -0.299999 21.5182 0
      vertex 0.299999 21.5182 0.2
      vertex -0.299999 21.5182 0.2
    endloop
  endfacet
  facet normal 0 -1 -0
    outer loop
      vertex 0.299999 21.5182 0.2
      vertex -0.299999 21.5182 0
      vertex 0.299999 21.5182 0
    endloop
  endfacet
  facet normal 1 -0 0
    outer loop
      vertex 0.299999 25.1545 0.2
      vertex 0.299999 25.7545 0
      vertex 0.299999 25.7545 0.2
    endloop
  endfacet
  facet normal 1 0 0
    outer loop
      vertex 0.299999 25.7545 0
      vertex 0.299999 25.1545 0.2
      vertex 0.299999 25.1545 0
    endloop
  endfacet
  facet normal -0 0 1
    outer loop
      vertex -0.299999 25.7545 0.2
      vertex 0.299999 25.1545 0.2
      vertex 0.299999 25.7545 0.2
    endloop
  endfacet
  facet normal 0 0 1
    outer loop
      vertex 0.299999 25.1545 0.2
      vertex -0.299999 25.7545 0.2
      vertex -0.299999 25.1545 0.2
    endloop
  endfacet
  facet normal 0 0 -1
    outer loop
      vertex -0.299999 25.1545 0
      vertex 0.299999 25.7545 0
      vertex 0.299999 25.1545 0
    endloop
  endfacet
  facet normal -0 0 -1
    outer loop
      vertex 0.299999 25.7545 0
      vertex -0.299999 25.1545 0
      vertex -0.299999 25.7545 0
    endloop
  endfacet
  facet normal -1 0 0
    outer loop
      vertex -0.299999 25.1545 0
      vertex -0.299999 25.7545 0.2
      vertex -0.299999 25.7545 0
    endloop
  endfacet
  facet normal -1 -0 0
    outer loop
      vertex -0.299999 25.7545 0.2
      vertex -0.299999 25.1545 0
      vertex -0.299999 25.1545 0.2
    endloop
  endfacet
  facet normal 0 1 -0
    outer loop
      vertex 0.299999 25.7545 0
      vertex -0.299999 25.7545 0.2
      vertex 0.299999 25.7545 0.2
    endloop
  endfacet
  facet normal 0 1 0
    outer loop
      vertex -0.299999 25.7545 0.2
      vertex 0.299999 25.7545 0
      vertex -0.299999 25.7545 0
    endloop
  endfacet
  facet normal 0 -1 0
    outer loop
      vertex -0.299999 25.1545 0
      vertex 0.299999 25.1545 0.2
      vertex -0.299999 25.1545 0.2
    endloop
  endfacet
  facet normal 0 -1 -0
    outer loop
      vertex 0.299999 25.1545 0.2
      vertex -0.299999 25.1545 0
      vertex 0.299999 25.1545 0
    endloop
  endfacet
  facet normal 1 -0 0
    outer loop
      vertex 0.299999 28.7909 0.2
      vertex 0.299999 29.3909 0
      vertex 0.299999 29.3909 0.2
    endloop
  endfacet
  facet normal 1 0 0
    outer loop
      vertex 0.299999 29.3909 0
      vertex 0.299999 28.7909 0.2
      vertex 0.299999 28.7909 0
    endloop
  endfacet
  facet normal -0 0 1
    outer loop
      vertex -0.299999 29.3909 0.2
      vertex 0.299999 28.7909 0.2
      vertex 0.299999 29.3909 0.2
    endloop
  endfacet
  facet normal 0 0 1
    outer loop
      vertex 0.299999 28.7909 0.2
      vertex -0.299999 29.3909 0.2
      vertex -0.299999 28.7909 0.2
    endloop
  endfacet
  facet normal 0 0 -1
    outer loop
      vertex -0.299999 28.7909 0
      vertex 0.299999 29.3909 0
      vertex 0.299999 28.7909 0
    endloop
  endfacet
  facet normal -0 0 -1
    outer loop
      vertex 0.299999 29.3909 0
      vertex -0.299999 28.7909 0
      vertex -0.299999 29.3909 0
    endloop
  endfacet
  facet normal -1 0 0
    outer loop
      vertex -0.299999 28.7909 0
      vertex -0.299999 29.3909 0.2
      vertex -0.299999 29.3909 0
    endloop
  endfacet
  facet normal -1 -0 0
    outer loop
      vertex -0.299999 29.3909 0.2
      vertex -0.299999 28.7909 0
      vertex -0.299999 28.7909 0.2
    endloop
  endfacet
  facet normal 0 1 -0
    outer loop
      vertex 0.299999 29.3909 0
      vertex -0.299999 29.3909 0.2
      vertex 0.299999 29.3909 0.2
    endloop
  endfacet
  facet normal 0 1 0
    outer loop
      vertex -0.299999 29.3909 0.2
      vertex 0.299999 29.3909 0
      vertex -0.299999 29.3909 0
    endloop
  endfacet
  facet normal 0 -1 0
    outer loop
      vertex -0.299999 28.7909 0
      vertex 0.299999 28.7909 0.2
      vertex -0.299999 28.7909 0.2
    endloop
  endfacet
  facet normal 0 -1 -0
    outer loop
      vertex 0.299999 28.7909 0.2
      vertex -0.299999 28.7909 0
      vertex 0.299999 28.7909 0
    endloop
  endfacet
  facet normal 1 -0 0
    outer loop
      vertex 0.299999 32.4273 0.2
      vertex 0.299999 33.0273 0
      vertex 0.299999 33.0273 0.2
    endloop
  endfacet
  facet normal 1 0 0
    outer loop
      vertex 0.299999 33.0273 0
      vertex 0.299999 32.4273 0.2
      vertex 0.299999 32.4273 0
    endloop
  endfacet
  facet normal -0 0 1
    outer loop
      vertex -0.299999 33.0273 0.2
      vertex 0.299999 32.4273 0.2
      vertex 0.299999 33.0273 0.2
    endloop
  endfacet
  facet normal 0 0 1
    outer loop
      vertex 0.299999 32.4273 0.2
      vertex -0.299999 33.0273 0.2
      vertex -0.299999 32.4273 0.2
    endloop
  endfacet
  facet normal 0 0 -1
    outer loop
      vertex -0.299999 32.4273 0
      vertex 0.299999 33.0273 0
      vertex 0.299999 32.4273 0
    endloop
  endfacet
  facet normal -0 0 -1
    outer loop
      vertex 0.299999 33.0273 0
      vertex -0.299999 32.4273 0
      vertex -0.299999 33.0273 0
    endloop
  endfacet
  facet normal -1 0 0
    outer loop
      vertex -0.299999 32.4273 0
      vertex -0.299999 33.0273 0.2
      vertex -0.299999 33.0273 0
    endloop
  endfacet
  facet normal -1 -0 0
    outer loop
      vertex -0.299999 33.0273 0.2
      vertex -0.299999 32.4273 0
      vertex -0.299999 32.4273 0.2
    endloop
  endfacet
  facet normal 0 1 -0
    outer loop
      vertex 0.299999 33.0273 0
      vertex -0.299999 33.0273 0.2
      vertex 0.299999 33.0273 0.2
    endloop
  endfacet
  facet normal 0 1 0
    outer loop
      vertex -0.299999 33.0273 0.2
      vertex 0.299999 33.0273 0
      vertex -0.299999 33.0273 0
    endloop
  endfacet
  facet normal 0 -1 0
    outer loop
      vertex -0.299999 32.4273 0
      vertex 0.299999 32.4273 0.2
      vertex -0.299999 32.4273 0.2
    endloop
  endfacet
  facet normal 0 -1 -0
    outer loop
      vertex 0.299999 32.4273 0.2
      vertex -0.299999 32.4273 0
      vertex 0.299999 32.4273 0
    endloop
  endfacet
  facet normal 1 -0 0
    outer loop
      vertex 0.299999 36.0636 0.2
      vertex 0.299999 36.6636 0
      vertex 0.299999 36.6636 0.2
    endloop
  endfacet
  facet normal 1 0 0
    outer loop
      vertex 0.299999 36.6636 0
      vertex 0.299999 36.0636 0.2
      vertex 0.299999 36.0636 0
    endloop
  endfacet
  facet normal -0 0 1
    outer loop
      vertex -0.299999 36.6636 0.2
      vertex 0.299999 36.0636 0.2
      vertex 0.299999 36.6636 0.2
    endloop
  endfacet
  facet normal 0 0 1
    outer loop
      vertex 0.299999 36.0636 0.2
      vertex -0.299999 36.6636 0.2
      vertex -0.299999 36.0636 0.2
    endloop
  endfacet
  facet normal 0 0 -1
    outer loop
      vertex -0.299999 36.0636 0
      vertex 0.299999 36.6636 0
      vertex 0.299999 36.0636 0
    endloop
  endfacet
  facet normal -0 0 -1
    outer loop
      vertex 0.299999 36.6636 0
      vertex -0.299999 36.0636 0
      vertex -0.299999 36.6636 0
    endloop
  endfacet
  facet normal -1 0 0
    outer loop
      vertex -0.299999 36.0636 0
      vertex -0.299999 36.6636 0.2
      vertex -0.299999 36.6636 0
    endloop
  endfacet
  facet normal -1 -0 0
    outer loop
      vertex -0.299999 36.6636 0.2
      vertex -0.299999 36.0636 0
      vertex -0.299999 36.0636 0.2
    endloop
  endfacet
  facet normal 0 1 -0
    outer loop
      vertex 0.299999 36.6636 0
      vertex -0.299999 36.6636 0.2
      vertex 0.299999 36.6636 0.2
    endloop
  endfacet
  facet normal 0 1 0
    outer loop
      vertex -0.299999 36.6636 0.2
      vertex 0.299999 36.6636 0
      vertex -0.299999 36.6636 0
    endloop
  endfacet
  facet normal 0 -1 0
    outer loop
      vertex -0.299999 36.0636 0
      vertex 0.299999 36.0636 0.2
      vertex -0.299999 36.0636 0.2
    endloop
  endfacet
  facet normal 0 -1 -0
    outer loop
      vertex 0.299999 36.0636 0.2
      vertex -0.299999 36.0636 0
      vertex 0.299999 36.0636 0
    endloop
  endfacet
endsolid OpenSCAD_Model
