solid OpenSCAD_Model
  facet normal -1 0 0
    outer loop
      vertex 31.01 -23 0
      vertex 31.01 -22 50
      vertex 31.01 -22 0
    endloop
  endfacet
  facet normal -1 -0 0
    outer loop
      vertex 31.01 -22 50
      vertex 31.01 -23 0
      vertex 31.01 -23 50
    endloop
  endfacet
  facet normal -1 0 0
    outer loop
      vertex 30.5 -2 0
      vertex 30.5 -0.414215 50
      vertex 30.5 -0.414215 0
    endloop
  endfacet
  facet normal -1 -0 0
    outer loop
      vertex 30.5 -0.414215 50
      vertex 30.5 -2 0
      vertex 30.5 -2 50
    endloop
  endfacet
  facet normal -1 0 0
    outer loop
      vertex 30.5 -24 0
      vertex 30.5 -23 50
      vertex 30.5 -23 0
    endloop
  endfacet
  facet normal -1 -0 0
    outer loop
      vertex 30.5 -23 50
      vertex 30.5 -24 0
      vertex 30.5 -24 50
    endloop
  endfacet
  facet normal -1 0 0
    outer loop
      vertex 30.5 -18 0
      vertex 30.5 -17 50
      vertex 30.5 -17 0
    endloop
  endfacet
  facet normal -1 -0 0
    outer loop
      vertex 30.5 -17 50
      vertex 30.5 -18 0
      vertex 30.5 -18 50
    endloop
  endfacet
  facet normal -1 0 0
    outer loop
      vertex 30.5 -16 0
      vertex 30.5 -15 50
      vertex 30.5 -15 0
    endloop
  endfacet
  facet normal -1 -0 0
    outer loop
      vertex 30.5 -15 50
      vertex 30.5 -16 0
      vertex 30.5 -16 50
    endloop
  endfacet
  facet normal -1 0 0
    outer loop
      vertex 30.5 -8 0
      vertex 30.5 -7 50
      vertex 30.5 -7 0
    endloop
  endfacet
  facet normal -1 -0 0
    outer loop
      vertex 30.5 -7 50
      vertex 30.5 -8 0
      vertex 30.5 -8 50
    endloop
  endfacet
  facet normal -1 0 0
    outer loop
      vertex 30.5 -10 0
      vertex 30.5 -9 50
      vertex 30.5 -9 0
    endloop
  endfacet
  facet normal -1 -0 0
    outer loop
      vertex 30.5 -9 50
      vertex 30.5 -10 0
      vertex 30.5 -10 50
    endloop
  endfacet
  facet normal -1 0 0
    outer loop
      vertex 30.5 -6 0
      vertex 30.5 -5 50
      vertex 30.5 -5 0
    endloop
  endfacet
  facet normal -1 -0 0
    outer loop
      vertex 30.5 -5 50
      vertex 30.5 -6 0
      vertex 30.5 -6 50
    endloop
  endfacet
  facet normal -1 0 0
    outer loop
      vertex 30.5 -14 0
      vertex 30.5 -13 50
      vertex 30.5 -13 0
    endloop
  endfacet
  facet normal -1 -0 0
    outer loop
      vertex 30.5 -13 50
      vertex 30.5 -14 0
      vertex 30.5 -14 50
    endloop
  endfacet
  facet normal -1 0 0
    outer loop
      vertex 30.5 -12 0
      vertex 30.5 -11 50
      vertex 30.5 -11 0
    endloop
  endfacet
  facet normal -1 -0 0
    outer loop
      vertex 30.5 -11 50
      vertex 30.5 -12 0
      vertex 30.5 -12 50
    endloop
  endfacet
  facet normal -1 0 0
    outer loop
      vertex 30.5 -22 0
      vertex 30.5 -21 50
      vertex 30.5 -21 0
    endloop
  endfacet
  facet normal -1 -0 0
    outer loop
      vertex 30.5 -21 50
      vertex 30.5 -22 0
      vertex 30.5 -22 50
    endloop
  endfacet
  facet normal -1 0 0
    outer loop
      vertex 30.5 -20 0
      vertex 30.5 -19 50
      vertex 30.5 -19 0
    endloop
  endfacet
  facet normal -1 -0 0
    outer loop
      vertex 30.5 -19 50
      vertex 30.5 -20 0
      vertex 30.5 -20 50
    endloop
  endfacet
  facet normal -1 0 0
    outer loop
      vertex 30.5 -4 0
      vertex 30.5 -3 50
      vertex 30.5 -3 0
    endloop
  endfacet
  facet normal -1 -0 0
    outer loop
      vertex 30.5 -3 50
      vertex 30.5 -4 0
      vertex 30.5 -4 50
    endloop
  endfacet
  facet normal 0 -1 0
    outer loop
      vertex 30.5 -22 0
      vertex 31.01 -22 50
      vertex 30.5 -22 50
    endloop
  endfacet
  facet normal 0 -1 -0
    outer loop
      vertex 31.01 -22 50
      vertex 30.5 -22 0
      vertex 31.01 -22 0
    endloop
  endfacet
  facet normal 0 1 -0
    outer loop
      vertex 31.01 -23 0
      vertex 30.5 -23 50
      vertex 31.01 -23 50
    endloop
  endfacet
  facet normal 0 1 0
    outer loop
      vertex 30.5 -23 50
      vertex 31.01 -23 0
      vertex 30.5 -23 0
    endloop
  endfacet
  facet normal -1 0 0
    outer loop
      vertex 31.01 -21 0
      vertex 31.01 -20 50
      vertex 31.01 -20 0
    endloop
  endfacet
  facet normal -1 -0 0
    outer loop
      vertex 31.01 -20 50
      vertex 31.01 -21 0
      vertex 31.01 -21 50
    endloop
  endfacet
  facet normal 0 -1 0
    outer loop
      vertex 30.5 -20 0
      vertex 31.01 -20 50
      vertex 30.5 -20 50
    endloop
  endfacet
  facet normal 0 -1 -0
    outer loop
      vertex 31.01 -20 50
      vertex 30.5 -20 0
      vertex 31.01 -20 0
    endloop
  endfacet
  facet normal 0 1 -0
    outer loop
      vertex 31.01 -21 0
      vertex 30.5 -21 50
      vertex 31.01 -21 50
    endloop
  endfacet
  facet normal 0 1 0
    outer loop
      vertex 30.5 -21 50
      vertex 31.01 -21 0
      vertex 30.5 -21 0
    endloop
  endfacet
  facet normal -1 0 0
    outer loop
      vertex 31.01 -19 0
      vertex 31.01 -18 50
      vertex 31.01 -18 0
    endloop
  endfacet
  facet normal -1 -0 0
    outer loop
      vertex 31.01 -18 50
      vertex 31.01 -19 0
      vertex 31.01 -19 50
    endloop
  endfacet
  facet normal 0 -1 0
    outer loop
      vertex 30.5 -18 0
      vertex 31.01 -18 50
      vertex 30.5 -18 50
    endloop
  endfacet
  facet normal 0 -1 -0
    outer loop
      vertex 31.01 -18 50
      vertex 30.5 -18 0
      vertex 31.01 -18 0
    endloop
  endfacet
  facet normal 0 1 -0
    outer loop
      vertex 31.01 -19 0
      vertex 30.5 -19 50
      vertex 31.01 -19 50
    endloop
  endfacet
  facet normal 0 1 0
    outer loop
      vertex 30.5 -19 50
      vertex 31.01 -19 0
      vertex 30.5 -19 0
    endloop
  endfacet
  facet normal -1 0 0
    outer loop
      vertex 31.01 -17 0
      vertex 31.01 -16 50
      vertex 31.01 -16 0
    endloop
  endfacet
  facet normal -1 -0 0
    outer loop
      vertex 31.01 -16 50
      vertex 31.01 -17 0
      vertex 31.01 -17 50
    endloop
  endfacet
  facet normal 0 -1 0
    outer loop
      vertex 30.5 -16 0
      vertex 31.01 -16 50
      vertex 30.5 -16 50
    endloop
  endfacet
  facet normal 0 -1 -0
    outer loop
      vertex 31.01 -16 50
      vertex 30.5 -16 0
      vertex 31.01 -16 0
    endloop
  endfacet
  facet normal 0 1 -0
    outer loop
      vertex 31.01 -17 0
      vertex 30.5 -17 50
      vertex 31.01 -17 50
    endloop
  endfacet
  facet normal 0 1 0
    outer loop
      vertex 30.5 -17 50
      vertex 31.01 -17 0
      vertex 30.5 -17 0
    endloop
  endfacet
  facet normal -1 0 0
    outer loop
      vertex 31.01 -15 0
      vertex 31.01 -14 50
      vertex 31.01 -14 0
    endloop
  endfacet
  facet normal -1 -0 0
    outer loop
      vertex 31.01 -14 50
      vertex 31.01 -15 0
      vertex 31.01 -15 50
    endloop
  endfacet
  facet normal 0 -1 0
    outer loop
      vertex 30.5 -14 0
      vertex 31.01 -14 50
      vertex 30.5 -14 50
    endloop
  endfacet
  facet normal 0 -1 -0
    outer loop
      vertex 31.01 -14 50
      vertex 30.5 -14 0
      vertex 31.01 -14 0
    endloop
  endfacet
  facet normal 0 1 -0
    outer loop
      vertex 31.01 -15 0
      vertex 30.5 -15 50
      vertex 31.01 -15 50
    endloop
  endfacet
  facet normal 0 1 0
    outer loop
      vertex 30.5 -15 50
      vertex 31.01 -15 0
      vertex 30.5 -15 0
    endloop
  endfacet
  facet normal -1 0 0
    outer loop
      vertex 31.01 -13 0
      vertex 31.01 -12 50
      vertex 31.01 -12 0
    endloop
  endfacet
  facet normal -1 -0 0
    outer loop
      vertex 31.01 -12 50
      vertex 31.01 -13 0
      vertex 31.01 -13 50
    endloop
  endfacet
  facet normal 0 -1 0
    outer loop
      vertex 30.5 -12 0
      vertex 31.01 -12 50
      vertex 30.5 -12 50
    endloop
  endfacet
  facet normal 0 -1 -0
    outer loop
      vertex 31.01 -12 50
      vertex 30.5 -12 0
      vertex 31.01 -12 0
    endloop
  endfacet
  facet normal 0 1 -0
    outer loop
      vertex 31.01 -13 0
      vertex 30.5 -13 50
      vertex 31.01 -13 50
    endloop
  endfacet
  facet normal 0 1 0
    outer loop
      vertex 30.5 -13 50
      vertex 31.01 -13 0
      vertex 30.5 -13 0
    endloop
  endfacet
  facet normal -1 0 0
    outer loop
      vertex 31.01 -11 0
      vertex 31.01 -10 50
      vertex 31.01 -10 0
    endloop
  endfacet
  facet normal -1 -0 0
    outer loop
      vertex 31.01 -10 50
      vertex 31.01 -11 0
      vertex 31.01 -11 50
    endloop
  endfacet
  facet normal 0 -1 0
    outer loop
      vertex 30.5 -10 0
      vertex 31.01 -10 50
      vertex 30.5 -10 50
    endloop
  endfacet
  facet normal 0 -1 -0
    outer loop
      vertex 31.01 -10 50
      vertex 30.5 -10 0
      vertex 31.01 -10 0
    endloop
  endfacet
  facet normal 0 1 -0
    outer loop
      vertex 31.01 -11 0
      vertex 30.5 -11 50
      vertex 31.01 -11 50
    endloop
  endfacet
  facet normal 0 1 0
    outer loop
      vertex 30.5 -11 50
      vertex 31.01 -11 0
      vertex 30.5 -11 0
    endloop
  endfacet
  facet normal -1 0 0
    outer loop
      vertex 31.01 -9 0
      vertex 31.01 -8 50
      vertex 31.01 -8 0
    endloop
  endfacet
  facet normal -1 -0 0
    outer loop
      vertex 31.01 -8 50
      vertex 31.01 -9 0
      vertex 31.01 -9 50
    endloop
  endfacet
  facet normal 0 -1 0
    outer loop
      vertex 30.5 -8 0
      vertex 31.01 -8 50
      vertex 30.5 -8 50
    endloop
  endfacet
  facet normal 0 -1 -0
    outer loop
      vertex 31.01 -8 50
      vertex 30.5 -8 0
      vertex 31.01 -8 0
    endloop
  endfacet
  facet normal 0 1 -0
    outer loop
      vertex 31.01 -9 0
      vertex 30.5 -9 50
      vertex 31.01 -9 50
    endloop
  endfacet
  facet normal 0 1 0
    outer loop
      vertex 30.5 -9 50
      vertex 31.01 -9 0
      vertex 30.5 -9 0
    endloop
  endfacet
  facet normal -1 0 0
    outer loop
      vertex 31.01 -7 0
      vertex 31.01 -6 50
      vertex 31.01 -6 0
    endloop
  endfacet
  facet normal -1 -0 0
    outer loop
      vertex 31.01 -6 50
      vertex 31.01 -7 0
      vertex 31.01 -7 50
    endloop
  endfacet
  facet normal 0 -1 0
    outer loop
      vertex 30.5 -6 0
      vertex 31.01 -6 50
      vertex 30.5 -6 50
    endloop
  endfacet
  facet normal 0 -1 -0
    outer loop
      vertex 31.01 -6 50
      vertex 30.5 -6 0
      vertex 31.01 -6 0
    endloop
  endfacet
  facet normal 0 1 -0
    outer loop
      vertex 31.01 -7 0
      vertex 30.5 -7 50
      vertex 31.01 -7 50
    endloop
  endfacet
  facet normal 0 1 0
    outer loop
      vertex 30.5 -7 50
      vertex 31.01 -7 0
      vertex 30.5 -7 0
    endloop
  endfacet
  facet normal -1 0 0
    outer loop
      vertex 31.01 -5 0
      vertex 31.01 -4 50
      vertex 31.01 -4 0
    endloop
  endfacet
  facet normal -1 -0 0
    outer loop
      vertex 31.01 -4 50
      vertex 31.01 -5 0
      vertex 31.01 -5 50
    endloop
  endfacet
  facet normal 0 -1 0
    outer loop
      vertex 30.5 -4 0
      vertex 31.01 -4 50
      vertex 30.5 -4 50
    endloop
  endfacet
  facet normal 0 -1 -0
    outer loop
      vertex 31.01 -4 50
      vertex 30.5 -4 0
      vertex 31.01 -4 0
    endloop
  endfacet
  facet normal 0 1 -0
    outer loop
      vertex 31.01 -5 0
      vertex 30.5 -5 50
      vertex 31.01 -5 50
    endloop
  endfacet
  facet normal 0 1 0
    outer loop
      vertex 30.5 -5 50
      vertex 31.01 -5 0
      vertex 30.5 -5 0
    endloop
  endfacet
  facet normal -1 0 0
    outer loop
      vertex 31.01 -3 0
      vertex 31.01 -2 50
      vertex 31.01 -2 0
    endloop
  endfacet
  facet normal -1 -0 0
    outer loop
      vertex 31.01 -2 50
      vertex 31.01 -3 0
      vertex 31.01 -3 50
    endloop
  endfacet
  facet normal 0 -1 0
    outer loop
      vertex 30.5 -2 0
      vertex 31.01 -2 50
      vertex 30.5 -2 50
    endloop
  endfacet
  facet normal 0 -1 -0
    outer loop
      vertex 31.01 -2 50
      vertex 30.5 -2 0
      vertex 31.01 -2 0
    endloop
  endfacet
  facet normal 0 1 -0
    outer loop
      vertex 31.01 -3 0
      vertex 30.5 -3 50
      vertex 31.01 -3 50
    endloop
  endfacet
  facet normal 0 1 0
    outer loop
      vertex 30.5 -3 50
      vertex 31.01 -3 0
      vertex 30.5 -3 0
    endloop
  endfacet
  facet normal 0 0 -1
    outer loop
      vertex 0 -24 0
      vertex 3 -24 0
      vertex 2 -25 0
    endloop
  endfacet
  facet normal 0 0 -1
    outer loop
      vertex 30.5 -4 0
      vertex 31.01 -3 0
      vertex 31.01 -4 0
    endloop
  endfacet
  facet normal -0 0 -1
    outer loop
      vertex 31.01 -3 0
      vertex 30.5 -4 0
      vertex 30.5 -3 0
    endloop
  endfacet
  facet normal 0 0 -1
    outer loop
      vertex 30.5 -6 0
      vertex 31.01 -5 0
      vertex 31.01 -6 0
    endloop
  endfacet
  facet normal -0 0 -1
    outer loop
      vertex 31.01 -5 0
      vertex 30.5 -6 0
      vertex 30.5 -5 0
    endloop
  endfacet
  facet normal 0 0 -1
    outer loop
      vertex 30.5 -8 0
      vertex 31.01 -7 0
      vertex 31.01 -8 0
    endloop
  endfacet
  facet normal -0 0 -1
    outer loop
      vertex 31.01 -7 0
      vertex 30.5 -8 0
      vertex 30.5 -7 0
    endloop
  endfacet
  facet normal 0 0 -1
    outer loop
      vertex 30.5 -10 0
      vertex 31.01 -9 0
      vertex 31.01 -10 0
    endloop
  endfacet
  facet normal -0 0 -1
    outer loop
      vertex 31.01 -9 0
      vertex 30.5 -10 0
      vertex 30.5 -9 0
    endloop
  endfacet
  facet normal 0 0 -1
    outer loop
      vertex 30.5 -12 0
      vertex 31.01 -11 0
      vertex 31.01 -12 0
    endloop
  endfacet
  facet normal -0 0 -1
    outer loop
      vertex 31.01 -11 0
      vertex 30.5 -12 0
      vertex 30.5 -11 0
    endloop
  endfacet
  facet normal 0 0 -1
    outer loop
      vertex 30.5 -14 0
      vertex 31.01 -13 0
      vertex 31.01 -14 0
    endloop
  endfacet
  facet normal -0 0 -1
    outer loop
      vertex 31.01 -13 0
      vertex 30.5 -14 0
      vertex 30.5 -13 0
    endloop
  endfacet
  facet normal 0 0 -1
    outer loop
      vertex 30.5 -16 0
      vertex 31.01 -15 0
      vertex 31.01 -16 0
    endloop
  endfacet
  facet normal -0 0 -1
    outer loop
      vertex 31.01 -15 0
      vertex 30.5 -16 0
      vertex 30.5 -15 0
    endloop
  endfacet
  facet normal 0 0 -1
    outer loop
      vertex 30.5 -18 0
      vertex 31.01 -17 0
      vertex 31.01 -18 0
    endloop
  endfacet
  facet normal -0 0 -1
    outer loop
      vertex 31.01 -17 0
      vertex 30.5 -18 0
      vertex 30.5 -17 0
    endloop
  endfacet
  facet normal 0 0 -1
    outer loop
      vertex 30.5 -20 0
      vertex 31.01 -19 0
      vertex 31.01 -20 0
    endloop
  endfacet
  facet normal -0 0 -1
    outer loop
      vertex 31.01 -19 0
      vertex 30.5 -20 0
      vertex 30.5 -19 0
    endloop
  endfacet
  facet normal 0 0 -1
    outer loop
      vertex 30.5 -22 0
      vertex 31.01 -21 0
      vertex 31.01 -22 0
    endloop
  endfacet
  facet normal -0 0 -1
    outer loop
      vertex 31.01 -21 0
      vertex 30.5 -22 0
      vertex 30.5 -21 0
    endloop
  endfacet
  facet normal 0 0 -1
    outer loop
      vertex 30.5 -24 0
      vertex 31.01 -23 0
      vertex 31.5 -25 0
    endloop
  endfacet
  facet normal -0 0 -1
    outer loop
      vertex 31.01 -23 0
      vertex 30.5 -24 0
      vertex 30.5 -23 0
    endloop
  endfacet
  facet normal 0 0 -1
    outer loop
      vertex 31.01 -23 0
      vertex 33.5 -24 0
      vertex 32.5 -25 0
    endloop
  endfacet
  facet normal 0 0 -1
    outer loop
      vertex 31.01 -12 0
      vertex 33.5 -24 0
      vertex 31.01 -13 0
    endloop
  endfacet
  facet normal 0 0 -1
    outer loop
      vertex 31.01 -23 0
      vertex 32.5 -25 0
      vertex 31.5 -25 0
    endloop
  endfacet
  facet normal 0 0 -1
    outer loop
      vertex 33.5 -24 0
      vertex 31.01 -23 0
      vertex 31.01 -22 0
    endloop
  endfacet
  facet normal 0 0 -1
    outer loop
      vertex 33.5 -24 0
      vertex 31.01 -22 0
      vertex 31.01 -21 0
    endloop
  endfacet
  facet normal 0 0 -1
    outer loop
      vertex 33.5 -24 0
      vertex 31.01 -21 0
      vertex 31.01 -20 0
    endloop
  endfacet
  facet normal 0 0 -1
    outer loop
      vertex 33.5 -24 0
      vertex 31.01 -20 0
      vertex 31.01 -19 0
    endloop
  endfacet
  facet normal 0 0 -1
    outer loop
      vertex 33.5 -24 0
      vertex 31.01 -19 0
      vertex 31.01 -18 0
    endloop
  endfacet
  facet normal 0 0 -1
    outer loop
      vertex 33.5 -24 0
      vertex 31.01 -18 0
      vertex 31.01 -17 0
    endloop
  endfacet
  facet normal 0 0 -1
    outer loop
      vertex 33.5 -24 0
      vertex 31.01 -17 0
      vertex 31.01 -16 0
    endloop
  endfacet
  facet normal 0 0 -1
    outer loop
      vertex 33.5 -24 0
      vertex 31.01 -16 0
      vertex 31.01 -15 0
    endloop
  endfacet
  facet normal 0 0 -1
    outer loop
      vertex 33.5 -24 0
      vertex 31.01 -15 0
      vertex 31.01 -14 0
    endloop
  endfacet
  facet normal 0 0 -1
    outer loop
      vertex 33.5 -24 0
      vertex 31.01 -14 0
      vertex 31.01 -13 0
    endloop
  endfacet
  facet normal 0 0 -1
    outer loop
      vertex 31.01 -11 0
      vertex 33.5 -24 0
      vertex 31.01 -12 0
    endloop
  endfacet
  facet normal 0 0 -1
    outer loop
      vertex 33.5 -24 0
      vertex 31.01 -11 0
      vertex 33.5 2 0
    endloop
  endfacet
  facet normal 0 0 -1
    outer loop
      vertex 31.01 -10 0
      vertex 33.5 2 0
      vertex 31.01 -11 0
    endloop
  endfacet
  facet normal 0 0 -1
    outer loop
      vertex 31.01 -9 0
      vertex 33.5 2 0
      vertex 31.01 -10 0
    endloop
  endfacet
  facet normal 0 0 -1
    outer loop
      vertex 31.01 -8 0
      vertex 33.5 2 0
      vertex 31.01 -9 0
    endloop
  endfacet
  facet normal 0 0 -1
    outer loop
      vertex 31.01 -7 0
      vertex 33.5 2 0
      vertex 31.01 -8 0
    endloop
  endfacet
  facet normal 0 0 -1
    outer loop
      vertex 31.01 -6 0
      vertex 33.5 2 0
      vertex 31.01 -7 0
    endloop
  endfacet
  facet normal 0 0 -1
    outer loop
      vertex 31.01 -5 0
      vertex 33.5 2 0
      vertex 31.01 -6 0
    endloop
  endfacet
  facet normal 0 0 -1
    outer loop
      vertex 31.01 -4 0
      vertex 33.5 2 0
      vertex 31.01 -5 0
    endloop
  endfacet
  facet normal 0 0 -1
    outer loop
      vertex 31.01 -3 0
      vertex 33.5 2 0
      vertex 31.01 -4 0
    endloop
  endfacet
  facet normal 0 0 -1
    outer loop
      vertex 31.01 -2 0
      vertex 33.5 2 0
      vertex 31.01 -3 0
    endloop
  endfacet
  facet normal 0 0 -1
    outer loop
      vertex 30.5 -0.414215 0
      vertex 33.5 2 0
      vertex 31.01 -2 0
    endloop
  endfacet
  facet normal 0 0 -1
    outer loop
      vertex 30.5 -0.414215 0
      vertex 31.01 -2 0
      vertex 30.5 -2 0
    endloop
  endfacet
  facet normal -0 0 -1
    outer loop
      vertex 33.5 2 0
      vertex 30.5 -0.414215 0
      vertex 32.5 3 0
    endloop
  endfacet
  facet normal 0 0 -1
    outer loop
      vertex 30.0858 0 0
      vertex 32.5 3 0
      vertex 30.5 -0.414215 0
    endloop
  endfacet
  facet normal 0 0 -1
    outer loop
      vertex 3.41422 0 0
      vertex 32.5 3 0
      vertex 30.0858 0 0
    endloop
  endfacet
  facet normal 0 0 -1
    outer loop
      vertex 0 -24 0
      vertex 2 -25 0
      vertex 1 -25 0
    endloop
  endfacet
  facet normal 0 0 -1
    outer loop
      vertex 3.41422 0 0
      vertex 1 3 0
      vertex 32.5 3 0
    endloop
  endfacet
  facet normal 0 0 -1
    outer loop
      vertex 3 -0.414215 0
      vertex 1 3 0
      vertex 3.41422 0 0
    endloop
  endfacet
  facet normal 0 0 -1
    outer loop
      vertex 3 -24 0
      vertex 0 -24 0
      vertex 3 -0.414215 0
    endloop
  endfacet
  facet normal 0 0 -1
    outer loop
      vertex 0 2 0
      vertex 3 -0.414215 0
      vertex 0 -24 0
    endloop
  endfacet
  facet normal 0 0 -1
    outer loop
      vertex 3 -0.414215 0
      vertex 0 2 0
      vertex 1 3 0
    endloop
  endfacet
  facet normal -0 0 1
    outer loop
      vertex 30.5 -21 50
      vertex 31.01 -22 50
      vertex 31.01 -21 50
    endloop
  endfacet
  facet normal 0 0 1
    outer loop
      vertex 31.01 -22 50
      vertex 30.5 -21 50
      vertex 30.5 -22 50
    endloop
  endfacet
  facet normal -0 0 1
    outer loop
      vertex 30.5 -19 50
      vertex 31.01 -20 50
      vertex 31.01 -19 50
    endloop
  endfacet
  facet normal 0 0 1
    outer loop
      vertex 31.01 -20 50
      vertex 30.5 -19 50
      vertex 30.5 -20 50
    endloop
  endfacet
  facet normal -0 0 1
    outer loop
      vertex 30.5 -17 50
      vertex 31.01 -18 50
      vertex 31.01 -17 50
    endloop
  endfacet
  facet normal 0 0 1
    outer loop
      vertex 31.01 -18 50
      vertex 30.5 -17 50
      vertex 30.5 -18 50
    endloop
  endfacet
  facet normal -0 0 1
    outer loop
      vertex 30.5 -15 50
      vertex 31.01 -16 50
      vertex 31.01 -15 50
    endloop
  endfacet
  facet normal 0 0 1
    outer loop
      vertex 31.01 -16 50
      vertex 30.5 -15 50
      vertex 30.5 -16 50
    endloop
  endfacet
  facet normal -0 0 1
    outer loop
      vertex 30.5 -13 50
      vertex 31.01 -14 50
      vertex 31.01 -13 50
    endloop
  endfacet
  facet normal 0 0 1
    outer loop
      vertex 31.01 -14 50
      vertex 30.5 -13 50
      vertex 30.5 -14 50
    endloop
  endfacet
  facet normal -0 0 1
    outer loop
      vertex 30.5 -11 50
      vertex 31.01 -12 50
      vertex 31.01 -11 50
    endloop
  endfacet
  facet normal 0 0 1
    outer loop
      vertex 31.01 -12 50
      vertex 30.5 -11 50
      vertex 30.5 -12 50
    endloop
  endfacet
  facet normal -0 0 1
    outer loop
      vertex 30.5 -9 50
      vertex 31.01 -10 50
      vertex 31.01 -9 50
    endloop
  endfacet
  facet normal 0 0 1
    outer loop
      vertex 31.01 -10 50
      vertex 30.5 -9 50
      vertex 30.5 -10 50
    endloop
  endfacet
  facet normal -0 0 1
    outer loop
      vertex 30.5 -7 50
      vertex 31.01 -8 50
      vertex 31.01 -7 50
    endloop
  endfacet
  facet normal 0 0 1
    outer loop
      vertex 31.01 -8 50
      vertex 30.5 -7 50
      vertex 30.5 -8 50
    endloop
  endfacet
  facet normal -0 0 1
    outer loop
      vertex 30.5 -5 50
      vertex 31.01 -6 50
      vertex 31.01 -5 50
    endloop
  endfacet
  facet normal 0 0 1
    outer loop
      vertex 31.01 -6 50
      vertex 30.5 -5 50
      vertex 30.5 -6 50
    endloop
  endfacet
  facet normal -0 0 1
    outer loop
      vertex 30.5 -3 50
      vertex 31.01 -4 50
      vertex 31.01 -3 50
    endloop
  endfacet
  facet normal 0 0 1
    outer loop
      vertex 31.01 -4 50
      vertex 30.5 -3 50
      vertex 30.5 -4 50
    endloop
  endfacet
  facet normal 0 0 1
    outer loop
      vertex 30.5 -0.414215 50
      vertex 33.5 2 50
      vertex 32.5 3 50
    endloop
  endfacet
  facet normal 0 0 1
    outer loop
      vertex 31.01 -10 50
      vertex 33.5 2 50
      vertex 31.01 -9 50
    endloop
  endfacet
  facet normal -0 0 1
    outer loop
      vertex 31.01 -13 50
      vertex 33.5 -24 50
      vertex 31.01 -12 50
    endloop
  endfacet
  facet normal 0 0 1
    outer loop
      vertex 33.5 2 50
      vertex 31.01 -2 50
      vertex 31.01 -3 50
    endloop
  endfacet
  facet normal 0 0 1
    outer loop
      vertex 33.5 2 50
      vertex 30.5 -0.414215 50
      vertex 31.01 -2 50
    endloop
  endfacet
  facet normal 0 0 1
    outer loop
      vertex 32.5 3 50
      vertex 30.0858 0 50
      vertex 30.5 -0.414215 50
    endloop
  endfacet
  facet normal 0 0 1
    outer loop
      vertex 32.5 3 50
      vertex 3.41422 0 50
      vertex 30.0858 0 50
    endloop
  endfacet
  facet normal 0 0 1
    outer loop
      vertex 0 -24 50
      vertex 3 -24 50
      vertex 3 -0.414215 50
    endloop
  endfacet
  facet normal -0 0 1
    outer loop
      vertex 1 3 50
      vertex 3.41422 0 50
      vertex 32.5 3 50
    endloop
  endfacet
  facet normal 0 0 1
    outer loop
      vertex 1 3 50
      vertex 3 -0.414215 50
      vertex 3.41422 0 50
    endloop
  endfacet
  facet normal -0 0 1
    outer loop
      vertex 0 2 50
      vertex 3 -0.414215 50
      vertex 1 3 50
    endloop
  endfacet
  facet normal 0 0 1
    outer loop
      vertex 0 -24 50
      vertex 3 -0.414215 50
      vertex 0 2 50
    endloop
  endfacet
  facet normal 0 0 1
    outer loop
      vertex 3 -24 50
      vertex 0 -24 50
      vertex 2 -25 50
    endloop
  endfacet
  facet normal 0 0 1
    outer loop
      vertex 2 -25 50
      vertex 0 -24 50
      vertex 1 -25 50
    endloop
  endfacet
  facet normal 0 0 1
    outer loop
      vertex 33.5 2 50
      vertex 31.01 -3 50
      vertex 31.01 -4 50
    endloop
  endfacet
  facet normal 0 0 1
    outer loop
      vertex 33.5 2 50
      vertex 31.01 -4 50
      vertex 31.01 -5 50
    endloop
  endfacet
  facet normal 0 0 1
    outer loop
      vertex 33.5 2 50
      vertex 31.01 -5 50
      vertex 31.01 -6 50
    endloop
  endfacet
  facet normal 0 0 1
    outer loop
      vertex 33.5 2 50
      vertex 31.01 -6 50
      vertex 31.01 -7 50
    endloop
  endfacet
  facet normal 0 0 1
    outer loop
      vertex 33.5 2 50
      vertex 31.01 -7 50
      vertex 31.01 -8 50
    endloop
  endfacet
  facet normal 0 0 1
    outer loop
      vertex 33.5 2 50
      vertex 31.01 -8 50
      vertex 31.01 -9 50
    endloop
  endfacet
  facet normal 0 0 1
    outer loop
      vertex 31.01 -11 50
      vertex 33.5 2 50
      vertex 31.01 -10 50
    endloop
  endfacet
  facet normal 0 0 1
    outer loop
      vertex 33.5 2 50
      vertex 31.01 -11 50
      vertex 33.5 -24 50
    endloop
  endfacet
  facet normal 0 0 1
    outer loop
      vertex 33.5 -24 50
      vertex 31.01 -11 50
      vertex 31.01 -12 50
    endloop
  endfacet
  facet normal -0 0 1
    outer loop
      vertex 31.01 -14 50
      vertex 33.5 -24 50
      vertex 31.01 -13 50
    endloop
  endfacet
  facet normal -0 0 1
    outer loop
      vertex 31.01 -15 50
      vertex 33.5 -24 50
      vertex 31.01 -14 50
    endloop
  endfacet
  facet normal -0 0 1
    outer loop
      vertex 31.01 -16 50
      vertex 33.5 -24 50
      vertex 31.01 -15 50
    endloop
  endfacet
  facet normal -0 0 1
    outer loop
      vertex 31.01 -17 50
      vertex 33.5 -24 50
      vertex 31.01 -16 50
    endloop
  endfacet
  facet normal -0 0 1
    outer loop
      vertex 31.01 -18 50
      vertex 33.5 -24 50
      vertex 31.01 -17 50
    endloop
  endfacet
  facet normal -0 0 1
    outer loop
      vertex 31.01 -19 50
      vertex 33.5 -24 50
      vertex 31.01 -18 50
    endloop
  endfacet
  facet normal -0 0 1
    outer loop
      vertex 31.01 -20 50
      vertex 33.5 -24 50
      vertex 31.01 -19 50
    endloop
  endfacet
  facet normal -0 0 1
    outer loop
      vertex 31.01 -21 50
      vertex 33.5 -24 50
      vertex 31.01 -20 50
    endloop
  endfacet
  facet normal -0 0 1
    outer loop
      vertex 31.01 -22 50
      vertex 33.5 -24 50
      vertex 31.01 -21 50
    endloop
  endfacet
  facet normal -0 0 1
    outer loop
      vertex 31.01 -23 50
      vertex 33.5 -24 50
      vertex 31.01 -22 50
    endloop
  endfacet
  facet normal 0 0 1
    outer loop
      vertex 33.5 -24 50
      vertex 31.01 -23 50
      vertex 32.5 -25 50
    endloop
  endfacet
  facet normal 0 0 1
    outer loop
      vertex 32.5 -25 50
      vertex 31.01 -23 50
      vertex 31.5 -25 50
    endloop
  endfacet
  facet normal 0 0 1
    outer loop
      vertex 30.5 -24 50
      vertex 31.01 -23 50
      vertex 30.5 -23 50
    endloop
  endfacet
  facet normal 0 0 1
    outer loop
      vertex 31.01 -23 50
      vertex 30.5 -24 50
      vertex 31.5 -25 50
    endloop
  endfacet
  facet normal 0 0 1
    outer loop
      vertex 31.01 -2 50
      vertex 30.5 -0.414215 50
      vertex 30.5 -2 50
    endloop
  endfacet
  facet normal 1 -0 0
    outer loop
      vertex 3 -24 50
      vertex 3 -0.414215 0
      vertex 3 -0.414215 50
    endloop
  endfacet
  facet normal 1 0 0
    outer loop
      vertex 3 -0.414215 0
      vertex 3 -24 50
      vertex 3 -24 0
    endloop
  endfacet
  facet normal 0.707103 -0.707111 0
    outer loop
      vertex 3 -0.414215 50
      vertex 3.41422 0 0
      vertex 3.41422 0 50
    endloop
  endfacet
  facet normal 0.707103 -0.707111 0
    outer loop
      vertex 3.41422 0 0
      vertex 3 -0.414215 50
      vertex 3 -0.414215 0
    endloop
  endfacet
  facet normal 0 -1 0
    outer loop
      vertex 3.41422 0 0
      vertex 30.0858 0 50
      vertex 3.41422 0 50
    endloop
  endfacet
  facet normal 0 -1 -0
    outer loop
      vertex 30.0858 0 50
      vertex 3.41422 0 0
      vertex 30.0858 0 0
    endloop
  endfacet
  facet normal -0.70712 -0.707094 0
    outer loop
      vertex 30.5 -0.414215 0
      vertex 30.0858 0 50
      vertex 30.0858 0 0
    endloop
  endfacet
  facet normal -0.70712 -0.707094 0
    outer loop
      vertex 30.0858 0 50
      vertex 30.5 -0.414215 0
      vertex 30.5 -0.414215 50
    endloop
  endfacet
  facet normal -0.707107 -0.707107 0
    outer loop
      vertex 31.5 -25 0
      vertex 30.5 -24 50
      vertex 30.5 -24 0
    endloop
  endfacet
  facet normal -0.707107 -0.707107 0
    outer loop
      vertex 30.5 -24 50
      vertex 31.5 -25 0
      vertex 31.5 -25 50
    endloop
  endfacet
  facet normal 0 -1 0
    outer loop
      vertex 31.5 -25 0
      vertex 32.5 -25 50
      vertex 31.5 -25 50
    endloop
  endfacet
  facet normal 0 -1 -0
    outer loop
      vertex 32.5 -25 50
      vertex 31.5 -25 0
      vertex 32.5 -25 0
    endloop
  endfacet
  facet normal 0.707107 -0.707107 0
    outer loop
      vertex 32.5 -25 50
      vertex 33.5 -24 0
      vertex 33.5 -24 50
    endloop
  endfacet
  facet normal 0.707107 -0.707107 0
    outer loop
      vertex 33.5 -24 0
      vertex 32.5 -25 50
      vertex 32.5 -25 0
    endloop
  endfacet
  facet normal 1 -0 0
    outer loop
      vertex 33.5 -24 50
      vertex 33.5 2 0
      vertex 33.5 2 50
    endloop
  endfacet
  facet normal 1 0 0
    outer loop
      vertex 33.5 2 0
      vertex 33.5 -24 50
      vertex 33.5 -24 0
    endloop
  endfacet
  facet normal 0.707107 0.707107 0
    outer loop
      vertex 33.5 2 50
      vertex 32.5 3 0
      vertex 32.5 3 50
    endloop
  endfacet
  facet normal 0.707107 0.707107 0
    outer loop
      vertex 32.5 3 0
      vertex 33.5 2 50
      vertex 33.5 2 0
    endloop
  endfacet
  facet normal 0 1 -0
    outer loop
      vertex 32.5 3 0
      vertex 1 3 50
      vertex 32.5 3 50
    endloop
  endfacet
  facet normal 0 1 0
    outer loop
      vertex 1 3 50
      vertex 32.5 3 0
      vertex 1 3 0
    endloop
  endfacet
  facet normal -0.707107 0.707107 0
    outer loop
      vertex 0 2 0
      vertex 1 3 50
      vertex 1 3 0
    endloop
  endfacet
  facet normal -0.707107 0.707107 0
    outer loop
      vertex 1 3 50
      vertex 0 2 0
      vertex 0 2 50
    endloop
  endfacet
  facet normal -1 0 0
    outer loop
      vertex 0 -24 0
      vertex 0 2 50
      vertex 0 2 0
    endloop
  endfacet
  facet normal -1 -0 0
    outer loop
      vertex 0 2 50
      vertex 0 -24 0
      vertex 0 -24 50
    endloop
  endfacet
  facet normal -0.707107 -0.707107 0
    outer loop
      vertex 1 -25 0
      vertex 0 -24 50
      vertex 0 -24 0
    endloop
  endfacet
  facet normal -0.707107 -0.707107 0
    outer loop
      vertex 0 -24 50
      vertex 1 -25 0
      vertex 1 -25 50
    endloop
  endfacet
  facet normal 0 -1 0
    outer loop
      vertex 1 -25 0
      vertex 2 -25 50
      vertex 1 -25 50
    endloop
  endfacet
  facet normal 0 -1 -0
    outer loop
      vertex 2 -25 50
      vertex 1 -25 0
      vertex 2 -25 0
    endloop
  endfacet
  facet normal 0.707107 -0.707107 0
    outer loop
      vertex 2 -25 50
      vertex 3 -24 0
      vertex 3 -24 50
    endloop
  endfacet
  facet normal 0.707107 -0.707107 0
    outer loop
      vertex 3 -24 0
      vertex 2 -25 50
      vertex 2 -25 0
    endloop
  endfacet
endsolid OpenSCAD_Model
